<?xml version="1.0" encoding="UTF-8"?>
<svg xmlns="http://www.w3.org/2000/svg" xmlns:xlink="http://www.w3.org/1999/xlink" width="92pt" height="92pt" viewBox="0 0 92 92" version="1.1">
<g id="surface1">
<path style=" stroke:none;fill-rule:evenodd;fill:rgb(73.72549%,14.117647%,98.823529%);fill-opacity:1;" d="M 59.265625 35.160156 C 59.183594 35.378906 59.15625 37.984375 59.15625 45.875 L 59.15625 56.296875 L 48.902344 56.296875 C 42.457031 56.296875 38.5625 56.328125 38.414062 56.382812 L 38.179688 56.46875 L 38.203125 71.027344 L 38.226562 85.589844 L 91.125 85.589844 L 91.148438 60.226562 L 91.171875 34.867188 L 59.378906 34.867188 L 59.265625 35.160156 M 66.679688 59.566406 C 66.765625 59.644531 66.792969 61.355469 66.792969 66.722656 L 66.792969 73.773438 L 76.128906 73.820312 L 76.128906 75.226562 L 70.667969 75.246094 C 66.707031 75.265625 65.167969 75.242188 65.078125 75.171875 C 64.902344 75.035156 64.890625 59.730469 65.0625 59.566406 C 65.128906 59.5 65.449219 59.460938 65.871094 59.460938 C 66.292969 59.460938 66.613281 59.5 66.679688 59.566406 "/>
<path style=" stroke:none;fill-rule:evenodd;fill:rgb(14.117647%,83.137255%,98.823529%);fill-opacity:1;" d="M 2.78125 29.445312 L 2.804688 56.429688 L 20.464844 56.453125 C 32.730469 56.46875 38.152344 56.445312 38.222656 56.382812 C 38.289062 56.316406 38.332031 52.949219 38.363281 45.730469 L 38.410156 35.175781 L 48.722656 35.132812 C 57.277344 35.09375 59.0625 35.066406 59.1875 34.96875 C 59.328125 34.855469 59.339844 33.609375 59.339844 18.652344 L 59.339844 2.460938 L 2.761719 2.460938 L 2.78125 29.445312 M 33.273438 19.929688 C 35.214844 20.285156 36.757812 21.257812 37.589844 22.652344 C 37.90625 23.183594 37.875 23.277344 37.257812 23.648438 C 36.566406 24.066406 36.488281 24.0625 36.238281 23.585938 C 36.039062 23.203125 35.488281 22.574219 35.351562 22.570312 C 35.3125 22.570312 35.136719 22.445312 34.960938 22.292969 C 34.683594 22.058594 34.261719 21.84375 33.441406 21.519531 C 32.28125 21.058594 29.78125 21.371094 28.742188 22.105469 C 28.585938 22.21875 28.417969 22.308594 28.371094 22.308594 C 28.214844 22.308594 27.261719 23.304688 26.921875 23.824219 C 23.863281 28.472656 27.292969 34.699219 32.554688 34.058594 C 33.503906 33.945312 34.679688 33.496094 35.171875 33.0625 C 35.304688 32.945312 35.4375 32.847656 35.46875 32.847656 C 35.636719 32.847656 36.617188 31.632812 36.617188 31.425781 C 36.617188 31.195312 38.042969 31.75 38.152344 32.023438 C 38.289062 32.367188 36.777344 33.96875 35.742188 34.582031 C 35.375 34.796875 34.390625 35.21875 34.257812 35.21875 C 34.183594 35.21875 34.035156 35.261719 33.929688 35.316406 C 33.433594 35.570312 31.742188 35.714844 30.867188 35.574219 C 27.828125 35.097656 25.335938 32.976562 24.464844 30.136719 C 24.367188 29.816406 24.25 29.4375 24.203125 29.289062 C 23.910156 28.390625 24.070312 25.84375 24.476562 24.898438 C 25.070312 23.511719 25.847656 22.378906 26.652344 21.730469 C 26.945312 21.496094 27.207031 21.277344 27.230469 21.25 C 27.367188 21.097656 28.710938 20.378906 29.027344 20.289062 C 29.226562 20.234375 29.523438 20.128906 29.683594 20.0625 C 29.84375 19.992188 30.132812 19.933594 30.328125 19.925781 C 30.523438 19.921875 30.804688 19.886719 30.957031 19.847656 C 31.457031 19.726562 32.324219 19.757812 33.273438 19.929688 "/>
<path style=" stroke:none;fill-rule:evenodd;fill:rgb(51.764706%,36.078431%,98.823529%);fill-opacity:1;" d="M 17.042969 2.4375 C 24.773438 2.449219 37.417969 2.449219 45.148438 2.4375 C 52.878906 2.425781 46.554688 2.414062 31.097656 2.414062 C 15.636719 2.414062 9.3125 2.425781 17.042969 2.4375 M 59.171875 34.972656 C 59.078125 35.066406 56.980469 35.097656 48.730469 35.132812 L 38.410156 35.175781 L 38.363281 45.714844 C 38.339844 51.511719 38.285156 56.304688 38.242188 56.363281 C 38.1875 56.449219 38.222656 56.453125 38.410156 56.386719 C 38.566406 56.328125 42.3125 56.296875 48.902344 56.296875 L 59.15625 56.296875 L 59.15625 45.839844 C 59.15625 38.613281 59.1875 35.328125 59.253906 35.207031 C 59.382812 34.980469 59.328125 34.828125 59.171875 34.972656 M 65.0625 59.566406 C 64.902344 59.71875 64.902344 75.011719 65.0625 75.164062 C 65.1875 75.28125 76.039062 75.320312 76.117188 75.203125 C 76.140625 75.167969 73.667969 75.136719 70.625 75.136719 L 65.089844 75.136719 L 65.089844 59.589844 L 66.652344 59.589844 L 66.746094 73.730469 L 66.769531 66.699219 C 66.796875 58.714844 66.886719 59.460938 65.871094 59.460938 C 65.449219 59.460938 65.128906 59.5 65.0625 59.566406 "/>
<path style=" stroke:none;fill-rule:evenodd;fill:rgb(97.647059%,97.254902%,98.823529%);fill-opacity:1;" d="M 30.835938 20.027344 C 30.414062 20.0625 29.980469 20.128906 29.871094 20.175781 C 29.761719 20.226562 29.503906 20.3125 29.300781 20.375 C 28.261719 20.683594 26.738281 21.691406 26.074219 22.507812 C 25.925781 22.691406 25.765625 22.890625 25.714844 22.949219 C 25.414062 23.3125 24.707031 24.679688 24.574219 25.164062 C 24.125 26.761719 24.105469 28.820312 24.527344 29.742188 C 24.597656 29.894531 24.65625 30.101562 24.65625 30.199219 C 24.65625 30.296875 24.757812 30.566406 24.886719 30.792969 C 25.011719 31.019531 25.117188 31.246094 25.117188 31.292969 C 25.117188 32.101562 27.832031 34.535156 29.257812 35.003906 C 29.535156 35.09375 29.808594 35.199219 29.863281 35.238281 C 30.210938 35.476562 33.023438 35.472656 33.6875 35.230469 C 33.804688 35.1875 34.066406 35.105469 34.269531 35.042969 C 35.191406 34.769531 36.042969 34.265625 37.019531 33.417969 C 37.410156 33.078125 38.097656 32.101562 37.988281 32.035156 C 37.363281 31.652344 36.707031 31.445312 36.707031 31.628906 C 36.707031 31.75 36.207031 32.367188 35.828125 32.714844 C 35.113281 33.371094 34.929688 33.484375 33.71875 33.988281 C 33.027344 34.277344 31.167969 34.371094 30.46875 34.15625 C 30.03125 34.019531 29.53125 33.828125 29.316406 33.71875 C 29.226562 33.667969 28.988281 33.546875 28.789062 33.449219 C 28.238281 33.175781 26.679688 31.636719 26.679688 31.367188 C 26.679688 31.3125 26.636719 31.265625 26.589844 31.265625 C 26.539062 31.265625 26.496094 31.230469 26.496094 31.183594 C 26.496094 31.140625 26.371094 30.847656 26.21875 30.535156 C 26.066406 30.222656 25.945312 29.882812 25.945312 29.785156 C 25.945312 29.6875 25.90625 29.585938 25.859375 29.558594 C 25.816406 29.53125 25.75 29.261719 25.714844 28.960938 C 25.679688 28.660156 25.617188 28.261719 25.574219 28.078125 C 25.378906 27.207031 26.070312 24.683594 26.738281 23.828125 C 26.859375 23.675781 26.957031 23.527344 26.957031 23.5 C 26.957031 23.441406 27.347656 23 27.738281 22.621094 C 28.050781 22.316406 28.707031 21.886719 29.117188 21.710938 C 30.304688 21.203125 30.621094 21.132812 31.683594 21.128906 C 32.585938 21.125 33.230469 21.234375 33.824219 21.484375 C 33.984375 21.550781 34.144531 21.605469 34.175781 21.605469 C 34.550781 21.605469 36.433594 23.28125 36.433594 23.617188 C 36.433594 23.777344 36.847656 23.726562 37.101562 23.539062 C 37.230469 23.441406 37.375 23.363281 37.425781 23.363281 C 37.964844 23.363281 37.054688 21.960938 36.03125 21.214844 C 35.558594 20.871094 34.402344 20.289062 34.1875 20.285156 C 34.082031 20.285156 33.828125 20.230469 33.625 20.167969 C 33.152344 20.015625 31.816406 19.949219 30.835938 20.027344 M 65.085938 59.652344 C 65.0625 59.714844 65.054688 63.226562 65.066406 67.453125 L 65.089844 75.136719 L 76.128906 75.136719 L 76.15625 74.691406 C 76.171875 74.449219 76.140625 74.140625 76.089844 74.011719 L 75.996094 73.777344 L 66.746094 73.730469 L 66.652344 59.589844 L 65.894531 59.566406 C 65.335938 59.546875 65.121094 59.570312 65.085938 59.652344 "/>
<path style=" stroke:none;fill-rule:evenodd;fill:rgb(63.921569%,92.941176%,98.823529%);fill-opacity:1;" d="M 30.957031 19.847656 C 30.804688 19.886719 30.523438 19.921875 30.328125 19.925781 C 30.132812 19.933594 29.84375 19.992188 29.683594 20.0625 C 29.523438 20.128906 29.226562 20.234375 29.027344 20.289062 C 28.710938 20.378906 27.367188 21.097656 27.230469 21.25 C 27.207031 21.277344 26.945312 21.496094 26.652344 21.730469 C 25.847656 22.378906 25.070312 23.511719 24.476562 24.898438 C 24.070312 25.84375 23.910156 28.390625 24.203125 29.289062 C 24.25 29.4375 24.367188 29.816406 24.464844 30.136719 C 25.335938 32.976562 27.828125 35.097656 30.867188 35.574219 C 31.742188 35.714844 33.433594 35.570312 33.929688 35.316406 C 34.035156 35.261719 34.183594 35.21875 34.257812 35.21875 C 34.390625 35.21875 35.375 34.796875 35.742188 34.582031 C 36.777344 33.96875 38.289062 32.367188 38.152344 32.023438 C 38.042969 31.75 36.617188 31.195312 36.617188 31.425781 C 36.617188 31.632812 35.636719 32.847656 35.46875 32.847656 C 35.4375 32.847656 35.304688 32.945312 35.171875 33.0625 C 34.679688 33.496094 33.503906 33.945312 32.554688 34.058594 C 27.292969 34.699219 23.863281 28.472656 26.921875 23.824219 C 27.261719 23.304688 28.214844 22.308594 28.371094 22.308594 C 28.417969 22.308594 28.585938 22.21875 28.742188 22.105469 C 29.78125 21.371094 32.28125 21.058594 33.441406 21.519531 C 34.261719 21.84375 34.683594 22.058594 34.960938 22.292969 C 35.136719 22.445312 35.3125 22.570312 35.351562 22.570312 C 35.488281 22.574219 36.039062 23.203125 36.238281 23.585938 C 36.488281 24.0625 36.566406 24.066406 37.257812 23.648438 C 37.996094 23.203125 37.941406 22.902344 36.902344 21.773438 C 35.605469 20.371094 32.695312 19.425781 30.957031 19.847656 M 33.625 20.167969 C 33.828125 20.230469 34.082031 20.285156 34.1875 20.285156 C 34.402344 20.289062 35.558594 20.871094 36.03125 21.214844 C 37.054688 21.960938 37.964844 23.363281 37.425781 23.363281 C 37.375 23.363281 37.230469 23.441406 37.101562 23.539062 C 36.847656 23.726562 36.433594 23.777344 36.433594 23.617188 C 36.433594 23.28125 34.550781 21.605469 34.175781 21.605469 C 34.144531 21.605469 33.984375 21.550781 33.824219 21.484375 C 33.230469 21.234375 32.585938 21.125 31.683594 21.128906 C 30.621094 21.132812 30.304688 21.203125 29.117188 21.710938 C 28.707031 21.886719 28.050781 22.316406 27.738281 22.621094 C 27.347656 23 26.957031 23.441406 26.957031 23.5 C 26.957031 23.527344 26.859375 23.675781 26.738281 23.828125 C 26.070312 24.683594 25.378906 27.207031 25.574219 28.078125 C 25.617188 28.261719 25.679688 28.660156 25.714844 28.960938 C 25.75 29.261719 25.816406 29.53125 25.859375 29.558594 C 25.90625 29.585938 25.945312 29.6875 25.945312 29.785156 C 25.945312 29.882812 26.066406 30.222656 26.21875 30.535156 C 26.371094 30.847656 26.496094 31.140625 26.496094 31.183594 C 26.496094 31.230469 26.539062 31.265625 26.589844 31.265625 C 26.636719 31.265625 26.679688 31.3125 26.679688 31.367188 C 26.679688 31.636719 28.238281 33.175781 28.789062 33.449219 C 28.988281 33.546875 29.226562 33.667969 29.316406 33.71875 C 29.53125 33.828125 30.03125 34.019531 30.46875 34.15625 C 31.167969 34.371094 33.027344 34.277344 33.71875 33.988281 C 34.929688 33.484375 35.113281 33.371094 35.828125 32.714844 C 36.207031 32.367188 36.707031 31.75 36.707031 31.628906 C 36.707031 31.445312 37.363281 31.652344 37.988281 32.035156 C 38.097656 32.101562 37.410156 33.078125 37.019531 33.417969 C 36.042969 34.265625 35.191406 34.769531 34.269531 35.042969 C 34.066406 35.105469 33.804688 35.1875 33.6875 35.230469 C 33.023438 35.472656 30.210938 35.476562 29.863281 35.238281 C 29.808594 35.199219 29.535156 35.09375 29.257812 35.003906 C 27.832031 34.535156 25.117188 32.101562 25.117188 31.292969 C 25.117188 31.246094 25.011719 31.019531 24.886719 30.792969 C 24.757812 30.566406 24.65625 30.296875 24.65625 30.199219 C 24.65625 30.101562 24.597656 29.894531 24.527344 29.742188 C 24.105469 28.820312 24.125 26.761719 24.574219 25.164062 C 24.707031 24.679688 25.414062 23.3125 25.714844 22.949219 C 25.765625 22.890625 25.925781 22.691406 26.074219 22.507812 C 26.738281 21.691406 28.261719 20.683594 29.300781 20.375 C 29.503906 20.3125 29.761719 20.226562 29.871094 20.175781 C 30.40625 19.945312 32.914062 19.9375 33.625 20.167969 "/>
</g>
</svg>
