<svg id="svg" version="1.1" xmlns="http://www.w3.org/2000/svg" xmlns:xlink="http://www.w3.org/1999/xlink" width="400" height="409.04761904761904" viewBox="0, 0, 400,409.04761904761904"><g id="svgg"><path id="path0" d="M194.000 1.452 C 193.230 1.521,189.990 1.781,186.800 2.031 C 175.229 2.937,158.217 6.441,150.200 9.570 C 139.435 13.771,137.282 14.745,128.200 19.519 C 125.347 21.019,114.390 28.200,111.963 30.162 C 111.392 30.623,110.232 31.540,109.386 32.200 C 103.333 36.918,97.672 42.244,93.473 47.170 C 91.893 49.023,90.285 50.868,89.900 51.270 C 89.515 51.671,89.200 52.125,89.200 52.278 C 89.200 52.431,88.771 53.016,88.246 53.578 C 86.734 55.198,82.779 61.144,79.400 66.876 C 79.180 67.249,78.269 68.960,77.375 70.677 C 76.481 72.395,75.553 74.160,75.313 74.600 C 73.833 77.315,70.858 84.796,69.747 88.600 C 67.311 96.937,66.817 99.461,65.754 109.000 C 65.270 113.343,65.226 115.183,65.557 117.200 C 65.792 118.630,66.061 120.340,66.154 121.000 C 66.780 125.426,70.050 132.488,73.421 136.693 C 78.331 142.818,88.181 150.000,91.670 150.000 C 91.984 150.000,92.411 150.164,92.620 150.364 C 93.248 150.967,100.848 152.000,104.648 151.999 C 110.337 151.999,116.260 150.719,120.200 148.638 C 120.860 148.290,121.564 148.004,121.764 148.002 C 122.952 147.994,132.512 139.519,133.200 137.864 C 133.310 137.599,134.025 136.487,134.789 135.391 C 136.634 132.745,139.388 127.070,140.564 123.491 C 141.086 121.901,141.819 119.790,142.192 118.800 C 143.155 116.242,144.043 113.931,144.419 113.000 C 144.597 112.560,145.126 111.132,145.593 109.827 C 147.214 105.304,152.537 94.412,154.989 90.600 C 155.980 89.060,157.089 87.260,157.454 86.600 C 159.367 83.135,168.097 73.600,169.356 73.600 C 169.673 73.600,169.993 73.441,170.067 73.247 C 170.913 71.005,184.892 66.327,192.953 65.589 C 195.179 65.385,198.170 65.108,199.600 64.973 C 210.950 63.898,228.678 68.688,236.169 74.852 C 238.983 77.168,240.467 78.518,242.045 80.200 C 244.737 83.070,247.600 86.615,247.600 87.078 C 247.600 87.297,247.960 87.802,248.400 88.200 C 248.840 88.598,249.200 89.071,249.200 89.251 C 249.200 89.432,249.838 90.889,250.619 92.489 C 251.399 94.090,252.193 96.030,252.384 96.800 C 252.574 97.570,253.043 99.280,253.425 100.600 C 254.798 105.342,254.328 119.612,252.741 121.380 C 252.553 121.589,252.400 122.153,252.400 122.634 C 252.400 125.085,245.735 136.026,241.230 140.970 C 237.097 145.506,228.484 153.689,220.150 161.000 C 219.899 161.220,218.304 162.660,216.605 164.200 C 214.906 165.740,213.040 167.431,212.458 167.957 C 211.876 168.484,209.513 170.644,207.208 172.757 C 204.902 174.871,201.752 177.757,200.208 179.172 C 195.831 183.181,182.904 196.409,181.514 198.300 C 180.827 199.235,180.137 200.000,179.982 200.000 C 179.827 200.000,178.743 201.395,177.573 203.100 C 176.403 204.805,175.325 206.290,175.178 206.400 C 174.661 206.786,168.853 216.739,167.792 219.057 C 167.202 220.346,166.255 222.390,165.688 223.600 C 164.446 226.254,164.221 226.826,163.411 229.400 C 163.065 230.500,162.620 231.760,162.423 232.200 C 162.226 232.640,161.586 235.070,161.002 237.600 C 160.418 240.130,159.776 242.830,159.576 243.600 C 158.197 248.894,157.609 266.577,158.571 273.800 C 159.848 283.384,163.450 290.590,169.479 295.620 C 173.433 298.919,178.312 301.707,182.000 302.776 C 182.990 303.063,184.643 303.557,185.674 303.873 C 192.737 306.037,211.052 303.077,214.400 299.230 C 214.510 299.103,215.230 298.560,216.000 298.023 C 216.770 297.486,218.471 295.896,219.780 294.490 C 221.993 292.112,222.739 291.118,223.449 289.600 C 223.604 289.270,224.037 288.550,224.413 288.000 C 224.788 287.450,225.232 286.550,225.400 286.000 C 225.567 285.450,226.035 284.280,226.439 283.400 C 227.147 281.856,229.296 274.099,230.039 270.400 C 232.114 260.080,234.950 250.909,237.367 246.706 C 239.835 242.412,240.138 241.933,240.852 241.182 C 241.210 240.805,242.279 239.440,243.227 238.148 C 245.245 235.398,255.971 224.577,262.000 219.210 C 264.310 217.153,267.100 214.615,268.200 213.569 C 269.300 212.524,270.677 211.248,271.261 210.734 C 286.879 196.978,310.800 173.808,310.800 172.437 C 310.800 172.250,311.080 171.865,311.423 171.581 C 312.010 171.094,316.931 164.571,317.800 163.129 C 318.020 162.764,318.908 161.425,319.774 160.153 C 325.863 151.209,330.415 140.311,332.453 129.800 C 333.746 123.131,334.000 121.434,334.000 119.453 C 334.000 118.408,334.202 115.899,334.448 113.877 C 334.812 110.887,334.772 108.930,334.234 103.400 C 333.183 92.609,333.202 92.717,330.387 81.600 C 330.137 80.610,329.771 79.440,329.574 79.000 C 329.377 78.560,328.740 76.850,328.158 75.200 C 327.577 73.550,326.673 71.351,326.150 70.313 C 325.628 69.276,325.200 68.166,325.200 67.847 C 325.200 67.528,325.065 67.207,324.900 67.133 C 324.735 67.060,324.074 65.920,323.431 64.600 C 321.693 61.033,317.368 54.022,314.930 50.818 C 310.198 44.599,302.666 36.540,297.889 32.583 C 296.837 31.712,295.436 30.529,294.775 29.953 C 293.687 29.004,286.539 23.974,284.895 23.000 C 284.523 22.780,283.294 22.032,282.163 21.339 C 276.227 17.699,266.365 13.024,259.400 10.547 C 258.520 10.234,257.440 9.824,257.000 9.634 C 255.239 8.877,249.519 7.215,245.184 6.201 C 242.663 5.612,240.240 4.984,239.800 4.806 C 239.360 4.629,237.470 4.281,235.600 4.034 C 233.730 3.786,231.300 3.410,230.200 3.198 C 223.394 1.886,201.182 0.815,194.000 1.452 M223.000 10.764 C 224.320 10.989,227.290 11.456,229.600 11.802 C 236.886 12.893,249.857 16.007,253.800 17.611 C 254.240 17.789,255.950 18.421,257.600 19.015 C 264.293 21.421,274.208 26.383,280.061 30.255 C 281.677 31.324,283.180 32.273,283.400 32.363 C 286.735 33.726,300.508 46.206,304.410 51.400 C 305.236 52.500,306.292 53.797,306.756 54.283 C 307.220 54.769,307.600 55.267,307.600 55.389 C 307.600 55.512,308.484 56.828,309.565 58.314 C 314.655 65.312,320.207 76.849,322.214 84.600 C 322.499 85.700,322.996 87.500,323.319 88.600 C 330.433 112.827,323.471 143.618,306.123 164.652 C 305.421 165.503,303.962 167.280,302.881 168.600 C 300.624 171.356,295.252 176.853,290.600 181.168 C 288.840 182.800,285.865 185.590,283.989 187.368 C 282.114 189.146,278.702 192.310,276.408 194.400 C 274.114 196.490,270.968 199.370,269.416 200.800 C 267.028 203.001,263.757 205.974,258.461 210.758 C 243.085 224.646,230.000 239.176,230.000 242.361 C 230.000 242.603,229.820 242.800,229.600 242.800 C 229.380 242.800,229.200 242.991,229.200 243.225 C 229.200 243.458,228.760 244.583,228.223 245.725 C 226.616 249.139,225.354 253.061,223.825 259.400 C 223.029 262.700,221.921 267.290,221.364 269.600 C 218.922 279.723,218.002 282.300,215.509 286.000 C 213.569 288.879,210.901 291.600,210.017 291.600 C 209.788 291.600,209.600 291.756,209.600 291.946 C 209.600 292.393,204.336 294.650,202.000 295.205 C 195.413 296.769,182.820 295.434,180.761 292.953 C 180.509 292.649,180.121 292.400,179.900 292.400 C 176.799 292.400,168.000 281.190,168.000 277.238 C 168.000 276.865,167.823 276.383,167.606 276.166 C 166.882 275.442,166.450 265.290,166.826 257.800 C 167.347 247.398,168.716 239.935,171.453 232.580 C 172.194 230.589,172.800 228.847,172.800 228.708 C 172.800 228.235,176.552 220.609,177.970 218.200 C 178.747 216.880,179.656 215.308,179.991 214.706 C 183.458 208.480,197.469 193.236,211.200 180.752 C 219.512 173.195,225.097 168.144,228.617 165.001 C 230.588 163.241,233.445 160.631,234.966 159.201 C 236.487 157.770,238.377 155.999,239.166 155.265 C 245.221 149.632,252.400 141.618,252.400 140.494 C 252.400 140.259,252.547 140.007,252.726 139.933 C 254.064 139.387,259.494 129.071,260.904 124.400 C 264.102 113.800,263.402 99.346,259.266 90.600 C 258.954 89.940,258.328 88.590,257.874 87.600 C 255.171 81.702,246.502 71.356,241.596 68.173 C 240.608 67.532,239.710 66.914,239.600 66.800 C 238.142 65.287,229.745 61.205,224.852 59.630 C 208.757 54.448,185.101 55.762,171.200 62.609 C 164.700 65.811,160.692 68.905,155.757 74.531 C 153.352 77.273,147.600 85.527,147.600 86.236 C 147.600 86.357,147.050 87.255,146.379 88.231 C 144.837 90.471,138.000 104.644,138.000 105.598 C 138.000 105.804,137.705 106.654,137.345 107.486 C 136.272 109.962,133.826 116.551,132.415 120.764 C 129.249 130.218,123.513 137.419,116.400 140.866 C 107.316 145.270,93.363 143.703,86.341 137.491 C 85.538 136.781,84.368 135.746,83.741 135.190 C 74.205 126.749,71.993 115.142,76.425 96.800 C 77.567 92.074,78.261 89.760,78.956 88.368 C 79.310 87.658,79.600 86.855,79.600 86.583 C 79.600 85.571,84.700 74.812,87.460 70.000 C 88.144 68.808,90.306 65.480,92.837 61.725 C 96.291 56.600,102.360 49.803,108.870 43.768 C 109.602 43.090,111.730 41.328,113.600 39.853 C 117.944 36.427,117.127 37.031,122.200 33.493 C 124.620 31.806,126.817 30.239,127.083 30.012 C 127.349 29.786,127.683 29.600,127.826 29.600 C 127.969 29.600,130.092 28.455,132.543 27.055 C 134.994 25.655,138.530 23.786,140.400 22.902 C 143.546 21.415,144.519 20.983,147.800 19.611 C 154.446 16.831,168.955 12.889,175.800 12.002 C 177.340 11.803,179.860 11.430,181.400 11.173 C 188.245 10.032,217.034 9.749,223.000 10.764 M188.000 321.059 C 177.437 323.465,166.043 330.503,161.800 337.245 C 161.580 337.594,160.865 338.672,160.210 339.640 C 158.883 341.604,158.229 342.745,156.810 345.578 C 152.677 353.831,152.049 369.559,155.477 379.000 C 157.212 383.779,157.367 384.122,159.139 387.077 C 167.356 400.782,185.107 408.798,202.449 406.636 C 207.574 405.997,210.137 405.445,211.000 404.794 C 211.220 404.628,211.966 404.371,212.658 404.224 C 214.574 403.814,219.734 401.001,222.446 398.887 C 223.778 397.849,225.257 396.730,225.734 396.400 C 229.787 393.593,234.702 386.542,237.304 379.800 C 239.782 373.380,240.658 360.488,239.032 354.400 C 238.649 352.970,238.245 351.350,238.132 350.800 C 238.019 350.250,237.673 349.233,237.364 348.540 C 237.054 347.846,236.800 347.157,236.800 347.008 C 236.800 343.909,228.884 333.530,222.974 328.882 C 214.100 321.902,199.065 318.539,188.000 321.059 M204.800 329.766 C 209.485 330.878,214.947 333.334,217.471 335.465 C 217.950 335.869,219.009 336.740,219.825 337.400 C 222.641 339.680,228.800 348.453,228.800 350.186 C 228.800 350.275,229.009 350.855,229.265 351.474 C 234.310 363.700,230.043 381.778,220.266 389.600 C 218.910 390.685,217.260 392.005,216.600 392.534 C 201.411 404.694,172.882 397.367,164.681 379.200 C 161.158 371.397,160.978 354.092,164.375 349.813 C 164.555 349.586,164.840 348.952,165.008 348.405 C 165.346 347.308,167.226 344.277,167.700 344.067 C 167.865 343.993,168.000 343.760,168.000 343.549 C 168.000 343.094,170.278 340.508,172.800 338.099 C 180.760 330.496,193.688 327.129,204.800 329.766 " stroke="none" fill="#080606" fill-rule="evenodd"></path><path id="path1" d="M0.000 204.400 L 0.000 408.800 200.000 408.800 L 400.000 408.800 400.000 204.400 L 400.000 0.000 200.000 0.000 L 0.000 0.000 0.000 204.400 M220.000 1.205 C 220.550 1.216,221.900 1.411,223.000 1.637 C 224.100 1.864,226.980 2.307,229.400 2.622 C 234.434 3.278,239.384 4.131,242.000 4.793 C 242.990 5.043,244.880 5.478,246.200 5.759 C 247.520 6.039,249.297 6.569,250.149 6.935 C 251.001 7.301,252.038 7.600,252.454 7.600 C 252.870 7.600,253.523 7.770,253.905 7.979 C 254.287 8.187,255.590 8.661,256.800 9.032 C 258.010 9.402,259.180 9.837,259.400 9.998 C 259.620 10.158,260.315 10.413,260.944 10.564 C 261.573 10.714,262.923 11.207,263.944 11.659 C 264.965 12.110,266.160 12.623,266.600 12.798 C 269.558 13.975,272.958 15.615,277.200 17.911 C 278.410 18.566,280.030 19.439,280.800 19.851 C 281.570 20.263,282.290 20.703,282.400 20.829 C 282.510 20.955,282.870 21.183,283.200 21.336 C 284.907 22.124,292.090 27.223,296.557 30.817 C 303.160 36.128,312.545 46.223,316.810 52.600 C 317.545 53.700,318.270 54.690,318.420 54.800 C 318.570 54.910,318.819 55.405,318.973 55.900 C 319.128 56.395,319.422 56.800,319.627 56.800 C 319.832 56.800,320.000 56.977,320.000 57.192 C 320.000 57.408,320.624 58.560,321.387 59.752 C 324.015 63.861,327.766 71.987,329.256 76.800 C 329.699 78.230,330.215 79.760,330.404 80.200 C 330.593 80.640,330.939 81.675,331.174 82.500 C 331.408 83.325,331.772 84.585,331.983 85.300 C 332.340 86.515,332.739 88.451,334.066 95.400 C 334.778 99.130,334.814 121.630,334.114 124.800 C 333.846 126.010,333.369 128.350,333.053 130.000 C 332.738 131.650,332.003 134.530,331.422 136.400 C 330.840 138.270,330.194 140.466,329.985 141.279 C 329.457 143.336,326.584 149.515,323.884 154.400 C 321.334 159.013,316.059 167.011,313.600 169.992 C 307.358 177.560,302.539 182.621,295.153 189.366 C 293.969 190.447,291.200 193.061,289.000 195.175 C 286.800 197.288,283.394 200.453,281.431 202.209 C 279.468 203.964,277.209 206.030,276.411 206.800 C 275.613 207.570,274.227 208.830,273.330 209.600 C 272.434 210.370,269.833 212.735,267.550 214.856 C 265.268 216.977,262.773 219.227,262.007 219.856 C 261.241 220.485,259.224 222.350,257.525 224.000 C 255.826 225.650,253.483 227.919,252.318 229.042 C 250.215 231.070,246.717 234.786,244.800 237.030 C 242.791 239.381,239.600 243.520,239.600 243.776 C 239.600 243.920,238.992 244.989,238.249 246.151 C 237.505 247.313,236.765 248.699,236.603 249.232 C 236.441 249.764,235.988 250.830,235.597 251.600 C 235.206 252.370,234.604 254.080,234.258 255.400 C 233.252 259.239,232.357 262.875,231.991 264.600 C 231.804 265.480,231.351 267.280,230.984 268.600 C 230.617 269.920,230.144 271.990,229.933 273.200 C 229.722 274.410,229.405 275.760,229.229 276.200 C 229.053 276.640,228.630 278.080,228.289 279.400 C 227.502 282.442,226.081 286.249,225.152 287.800 C 224.757 288.460,224.139 289.577,223.779 290.283 C 223.118 291.580,218.933 296.524,217.679 297.489 C 215.106 299.470,212.602 301.200,212.308 301.200 C 212.118 301.200,211.205 301.567,210.281 302.017 C 209.356 302.466,207.970 302.995,207.200 303.194 C 206.430 303.392,205.080 303.764,204.200 304.019 C 199.643 305.341,188.419 305.328,184.400 303.994 C 183.190 303.593,181.597 303.142,180.859 302.992 C 179.033 302.620,173.635 299.700,171.744 298.061 C 170.895 297.325,169.570 296.266,168.800 295.708 C 168.030 295.151,166.770 293.890,166.000 292.906 C 165.230 291.922,164.390 290.894,164.134 290.621 C 163.667 290.125,160.556 284.111,159.984 282.600 C 159.047 280.128,158.776 279.175,158.389 277.000 C 156.770 267.898,157.383 249.930,159.631 240.600 C 160.752 235.949,162.334 230.540,163.042 228.940 C 163.349 228.246,163.600 227.504,163.600 227.289 C 163.600 226.571,168.061 217.099,170.182 213.315 C 171.976 210.114,176.419 203.565,178.536 201.000 C 179.444 199.900,180.370 198.752,180.594 198.449 C 181.140 197.708,190.647 187.790,194.426 184.019 C 197.200 181.251,203.692 175.151,206.600 172.580 C 207.260 171.997,208.892 170.503,210.226 169.260 C 211.560 168.017,214.155 165.650,215.992 164.000 C 217.830 162.350,219.814 160.550,220.402 160.000 C 220.990 159.450,222.894 157.740,224.633 156.200 C 228.007 153.213,236.870 144.841,238.200 143.385 C 240.191 141.205,243.248 137.763,243.515 137.400 C 243.677 137.180,244.510 136.010,245.367 134.800 C 246.223 133.590,247.076 132.540,247.262 132.467 C 247.448 132.393,247.600 131.999,247.600 131.590 C 247.600 131.182,247.785 130.733,248.011 130.593 C 248.354 130.381,250.810 125.454,251.995 122.600 C 254.502 116.560,254.121 102.446,251.257 95.307 C 247.493 85.923,239.658 76.949,231.168 72.296 C 230.161 71.744,228.991 71.100,228.568 70.866 C 220.763 66.531,203.064 64.300,191.800 66.231 C 189.820 66.571,187.480 66.945,186.600 67.064 C 177.573 68.278,167.332 74.519,160.775 82.800 C 159.228 84.754,154.000 93.061,154.000 93.566 C 154.000 93.736,153.640 94.202,153.200 94.600 C 152.760 94.998,152.400 95.523,152.400 95.766 C 152.400 96.010,151.685 97.647,150.810 99.404 C 149.936 101.162,149.216 102.752,149.210 102.938 C 149.205 103.124,148.867 103.754,148.461 104.338 C 148.054 104.922,147.618 105.760,147.492 106.200 C 147.366 106.640,146.694 108.440,145.999 110.200 C 145.304 111.960,144.587 113.940,144.406 114.600 C 144.224 115.260,143.673 116.790,143.181 118.000 C 141.857 121.257,141.732 121.602,141.006 124.000 C 140.291 126.361,137.595 132.113,137.100 132.333 C 136.935 132.407,136.800 132.679,136.800 132.938 C 136.800 133.623,133.073 139.014,131.179 141.069 C 126.511 146.133,120.370 149.927,114.400 151.435 C 107.067 153.287,95.320 152.692,90.596 150.228 C 89.938 149.885,89.220 149.603,89.000 149.601 C 86.511 149.575,77.236 142.337,73.367 137.400 C 72.505 136.300,71.683 135.310,71.540 135.200 C 70.900 134.708,67.551 127.887,66.529 124.993 C 64.862 120.274,64.839 106.798,66.485 99.400 C 68.021 92.500,69.161 88.279,69.610 87.830 C 69.824 87.616,70.000 87.015,70.000 86.496 C 70.000 84.506,76.257 70.790,79.478 65.719 C 80.205 64.575,80.800 63.564,80.800 63.472 C 80.800 62.970,88.923 51.439,90.009 50.400 C 90.124 50.290,91.110 49.120,92.201 47.800 C 94.675 44.806,101.455 38.053,104.375 35.675 C 105.583 34.691,106.797 33.660,107.072 33.385 C 108.167 32.291,116.719 26.000,117.113 26.000 C 117.344 26.000,117.593 25.862,117.667 25.693 C 117.740 25.524,118.790 24.765,120.000 24.006 C 121.210 23.247,122.290 22.530,122.400 22.413 C 122.623 22.175,123.987 21.379,125.800 20.429 C 126.460 20.083,127.090 19.688,127.200 19.551 C 127.989 18.571,145.320 10.400,146.609 10.400 C 146.852 10.400,147.759 10.065,148.625 9.655 C 149.491 9.245,151.280 8.592,152.600 8.204 C 153.920 7.817,156.404 7.072,158.121 6.550 C 159.837 6.027,161.504 5.600,161.826 5.600 C 162.148 5.600,162.723 5.432,163.105 5.226 C 164.062 4.710,173.978 2.875,177.400 2.580 C 178.940 2.447,180.769 2.163,181.465 1.950 C 184.467 1.028,198.465 0.757,220.000 1.205 M204.795 320.436 C 206.008 320.642,207.630 320.979,208.400 321.186 C 212.333 322.242,214.400 322.940,214.400 323.211 C 214.400 323.377,214.843 323.625,215.385 323.761 C 216.890 324.138,221.102 326.705,224.000 329.010 C 237.837 340.018,243.202 356.958,238.931 376.161 C 238.354 378.756,235.883 385.132,235.276 385.591 C 235.124 385.706,234.550 386.677,234.000 387.750 C 230.723 394.138,217.774 403.872,210.200 405.640 C 209.100 405.897,207.840 406.257,207.400 406.440 C 204.006 407.853,187.656 407.821,185.800 406.397 C 185.580 406.229,184.597 405.958,183.615 405.796 C 182.634 405.634,181.554 405.359,181.215 405.185 C 180.167 404.646,175.987 402.800,175.816 402.800 C 175.523 402.800,171.413 400.213,170.836 399.665 C 170.526 399.370,169.565 398.683,168.700 398.137 C 164.614 395.557,159.334 389.229,156.907 384.000 C 154.635 379.108,154.458 378.593,153.596 374.400 C 149.249 353.263,158.799 332.793,177.000 324.231 C 177.880 323.817,179.071 323.240,179.647 322.948 C 184.920 320.276,196.833 319.086,204.795 320.436 " stroke="none" fill="#f3f3f3" fill-rule="evenodd"></path><path id="path2" d="M188.200 10.387 C 186.000 10.562,182.940 10.916,181.400 11.173 C 179.860 11.430,177.340 11.803,175.800 12.002 C 168.955 12.889,154.446 16.831,147.800 19.611 C 144.519 20.983,143.546 21.415,140.400 22.902 C 138.530 23.786,134.994 25.655,132.543 27.055 C 130.092 28.455,127.969 29.600,127.826 29.600 C 127.683 29.600,127.349 29.786,127.083 30.012 C 126.817 30.239,124.620 31.806,122.200 33.493 C 117.127 37.031,117.944 36.427,113.600 39.853 C 105.946 45.890,97.541 54.744,92.837 61.725 C 90.306 65.480,88.144 68.808,87.460 70.000 C 84.700 74.812,79.600 85.571,79.600 86.583 C 79.600 86.855,79.310 87.658,78.956 88.368 C 78.261 89.760,77.567 92.074,76.425 96.800 C 73.149 110.357,73.416 119.552,77.297 126.847 C 78.801 129.672,81.596 133.292,83.741 135.190 C 84.368 135.746,85.538 136.781,86.341 137.491 C 93.363 143.703,107.316 145.270,116.400 140.866 C 123.513 137.419,129.249 130.218,132.415 120.764 C 133.826 116.551,136.272 109.962,137.345 107.486 C 137.705 106.654,138.000 105.804,138.000 105.598 C 138.000 104.644,144.837 90.471,146.379 88.231 C 147.050 87.255,147.600 86.357,147.600 86.236 C 147.600 85.025,154.728 75.430,158.430 71.657 C 168.879 61.009,185.194 55.802,205.800 56.540 C 218.517 56.996,234.961 61.987,239.600 66.800 C 239.710 66.914,240.608 67.532,241.596 68.173 C 246.502 71.356,255.171 81.702,257.874 87.600 C 258.328 88.590,258.954 89.940,259.266 90.600 C 263.402 99.346,264.102 113.800,260.904 124.400 C 259.494 129.071,254.064 139.387,252.726 139.933 C 252.547 140.007,252.400 140.259,252.400 140.494 C 252.400 141.618,245.221 149.632,239.166 155.265 C 238.377 155.999,236.487 157.770,234.966 159.201 C 233.445 160.631,230.588 163.241,228.617 165.001 C 225.097 168.144,219.512 173.195,211.200 180.752 C 197.469 193.236,183.458 208.480,179.991 214.706 C 179.656 215.308,178.747 216.880,177.970 218.200 C 176.552 220.609,172.800 228.235,172.800 228.708 C 172.800 228.847,172.194 230.589,171.453 232.580 C 168.716 239.935,167.347 247.398,166.826 257.800 C 166.450 265.290,166.882 275.442,167.606 276.166 C 167.823 276.383,168.000 276.865,168.000 277.238 C 168.000 281.190,176.799 292.400,179.900 292.400 C 180.121 292.400,180.509 292.649,180.761 292.953 C 182.820 295.434,195.413 296.769,202.000 295.205 C 204.336 294.650,209.600 292.393,209.600 291.946 C 209.600 291.756,209.788 291.600,210.017 291.600 C 210.901 291.600,213.569 288.879,215.509 286.000 C 218.002 282.300,218.922 279.723,221.364 269.600 C 221.921 267.290,223.029 262.700,223.825 259.400 C 225.354 253.061,226.616 249.139,228.223 245.725 C 228.760 244.583,229.200 243.458,229.200 243.225 C 229.200 242.991,229.380 242.800,229.600 242.800 C 229.820 242.800,230.000 242.603,230.000 242.361 C 230.000 239.176,243.085 224.646,258.461 210.758 C 263.757 205.974,267.028 203.001,269.416 200.800 C 270.968 199.370,274.114 196.490,276.408 194.400 C 278.702 192.310,282.114 189.146,283.989 187.368 C 285.865 185.590,288.840 182.800,290.600 181.168 C 295.252 176.853,300.624 171.356,302.881 168.600 C 303.962 167.280,305.421 165.503,306.123 164.652 C 323.471 143.618,330.433 112.827,323.319 88.600 C 322.996 87.500,322.499 85.700,322.214 84.600 C 320.207 76.849,314.655 65.312,309.565 58.314 C 308.484 56.828,307.600 55.512,307.600 55.389 C 307.600 55.267,307.220 54.769,306.756 54.283 C 306.292 53.797,305.236 52.500,304.410 51.400 C 300.508 46.206,286.735 33.726,283.400 32.363 C 283.180 32.273,281.677 31.324,280.061 30.255 C 274.208 26.383,264.293 21.421,257.600 19.015 C 255.950 18.421,254.240 17.789,253.800 17.611 C 249.857 16.007,236.886 12.893,229.600 11.802 C 227.290 11.456,224.320 10.989,223.000 10.764 C 219.963 10.247,193.529 9.961,188.200 10.387 M190.600 329.416 C 181.691 331.083,175.816 334.446,169.500 341.492 C 168.675 342.412,168.000 343.338,168.000 343.549 C 168.000 343.760,167.865 343.993,167.700 344.067 C 167.226 344.277,165.346 347.308,165.008 348.405 C 164.840 348.952,164.555 349.586,164.375 349.813 C 160.978 354.092,161.158 371.397,164.681 379.200 C 172.882 397.367,201.411 404.694,216.600 392.534 C 217.260 392.005,218.910 390.685,220.266 389.600 C 230.043 381.778,234.310 363.700,229.265 351.474 C 229.009 350.855,228.800 350.275,228.800 350.186 C 228.800 348.453,222.641 339.680,219.825 337.400 C 219.009 336.740,217.950 335.869,217.471 335.465 C 211.583 330.495,199.440 327.761,190.600 329.416 " stroke="none" fill="#fa0404" fill-rule="evenodd"></path><path id="path3" d="M187.600 1.200 L 184.600 1.456 187.400 1.522 C 188.940 1.558,190.470 1.413,190.800 1.200 C 191.130 0.987,191.220 0.842,191.000 0.878 C 190.780 0.914,189.250 1.059,187.600 1.200 M193.312 1.095 C 194.364 1.177,195.984 1.176,196.912 1.092 C 197.840 1.008,196.980 0.941,195.000 0.942 C 193.020 0.943,192.260 1.012,193.312 1.095 M211.500 1.089 C 212.215 1.178,213.385 1.178,214.100 1.089 C 214.815 1.001,214.230 0.928,212.800 0.928 C 211.370 0.928,210.785 1.001,211.500 1.089 M217.105 1.483 C 217.602 1.579,218.322 1.575,218.705 1.475 C 219.087 1.375,218.680 1.296,217.800 1.301 C 216.920 1.305,216.607 1.387,217.105 1.483 M181.400 2.000 L 180.600 2.344 181.400 2.325 C 181.840 2.314,182.740 2.168,183.400 2.000 L 184.600 1.695 183.400 1.675 C 182.740 1.665,181.840 1.811,181.400 2.000 M223.200 2.000 C 223.750 2.176,224.650 2.317,225.200 2.313 C 226.098 2.306,226.078 2.274,225.000 2.000 C 223.308 1.569,221.856 1.569,223.200 2.000 M172.400 3.220 C 171.726 3.449,172.051 3.484,173.400 3.328 C 174.500 3.201,175.475 3.031,175.567 2.949 C 175.882 2.668,173.399 2.880,172.400 3.220 M231.233 2.947 C 231.325 3.028,232.120 3.204,233.000 3.338 C 234.115 3.507,234.358 3.471,233.800 3.219 C 233.032 2.871,230.890 2.644,231.233 2.947 M162.990 5.216 C 162.821 5.489,163.123 5.538,163.866 5.360 C 165.399 4.992,165.544 4.800,164.290 4.800 C 163.717 4.800,163.132 4.987,162.990 5.216 M242.200 5.200 C 243.396 5.714,244.395 5.714,243.600 5.200 C 243.270 4.987,242.640 4.822,242.200 4.834 L 241.400 4.856 242.200 5.200 M248.200 6.612 C 250.273 7.358,250.994 7.340,249.254 6.584 C 248.514 6.263,247.614 6.008,247.254 6.018 C 246.894 6.027,247.320 6.295,248.200 6.612 M257.200 9.334 C 257.200 9.437,257.781 9.724,258.491 9.972 C 259.201 10.219,259.606 10.257,259.391 10.056 C 258.935 9.629,257.200 9.058,257.200 9.334 M262.400 11.400 C 262.950 11.714,263.670 11.971,264.000 11.970 C 264.330 11.969,263.994 11.706,263.254 11.384 C 261.551 10.645,261.094 10.653,262.400 11.400 M267.200 13.298 C 267.523 13.618,271.200 15.171,271.200 14.988 C 271.200 14.896,270.705 14.569,270.100 14.261 C 268.902 13.652,266.878 12.980,267.200 13.298 M273.400 16.210 C 274.280 16.752,275.180 17.195,275.400 17.193 C 275.620 17.192,275.017 16.743,274.059 16.195 C 271.814 14.911,271.310 14.923,273.400 16.210 M283.709 22.000 C 284.269 22.440,284.857 22.800,285.017 22.800 C 285.177 22.800,284.850 22.440,284.291 22.000 C 283.731 21.560,283.143 21.200,282.983 21.200 C 282.823 21.200,283.150 21.560,283.709 22.000 M285.600 22.911 C 285.600 22.987,286.185 23.478,286.900 24.001 C 287.704 24.590,287.984 24.687,287.633 24.255 C 287.100 23.599,285.600 22.607,285.600 22.911 M115.400 27.035 L 114.200 28.066 115.600 27.163 C 117.396 26.004,117.401 26.000,116.967 26.002 C 116.765 26.003,116.060 26.468,115.400 27.035 M108.444 32.204 C 107.478 32.972,106.848 33.593,107.044 33.585 C 107.416 33.569,110.749 30.813,110.400 30.810 C 110.290 30.809,109.410 31.436,108.444 32.204 M297.635 32.100 C 297.728 32.155,298.433 32.740,299.202 33.400 L 300.600 34.600 299.425 33.300 C 298.779 32.585,298.074 32.000,297.858 32.000 C 297.643 32.000,297.543 32.045,297.635 32.100 M304.000 37.800 C 305.195 39.010,306.263 40.000,306.373 40.000 C 306.483 40.000,305.595 39.010,304.400 37.800 C 303.205 36.590,302.137 35.600,302.027 35.600 C 301.917 35.600,302.805 36.590,304.000 37.800 M96.378 43.100 L 95.000 44.600 96.596 43.200 C 97.473 42.430,98.268 41.755,98.362 41.700 C 98.456 41.645,98.359 41.600,98.145 41.600 C 97.932 41.600,97.137 42.275,96.378 43.100 M308.800 42.612 C 308.800 42.762,309.250 43.419,309.800 44.073 C 310.350 44.727,310.800 45.139,310.800 44.988 C 310.800 44.838,310.350 44.181,309.800 43.527 C 309.250 42.873,308.800 42.461,308.800 42.612 M315.200 50.800 C 315.670 51.460,316.144 52.000,316.254 52.000 C 316.364 52.000,316.070 51.460,315.600 50.800 C 315.130 50.140,314.656 49.600,314.546 49.600 C 314.436 49.600,314.730 50.140,315.200 50.800 M320.415 58.600 C 320.417 58.820,320.786 59.450,321.236 60.000 C 321.779 60.664,321.915 60.731,321.640 60.200 C 320.966 58.895,320.412 58.172,320.415 58.600 M81.675 61.984 C 81.194 62.635,80.800 63.300,80.800 63.462 C 80.800 63.623,81.250 63.145,81.800 62.400 C 82.350 61.655,82.800 60.990,82.800 60.922 C 82.800 60.595,82.475 60.902,81.675 61.984 M201.507 65.490 C 202.226 65.579,203.306 65.577,203.907 65.486 C 204.508 65.395,203.920 65.322,202.600 65.324 C 201.280 65.326,200.788 65.401,201.507 65.490 M209.900 65.882 C 210.395 65.978,211.205 65.978,211.700 65.882 C 212.195 65.787,211.790 65.709,210.800 65.709 C 209.810 65.709,209.405 65.787,209.900 65.882 M187.000 66.800 C 185.981 67.238,187.032 67.238,188.400 66.800 C 189.204 66.543,189.243 66.477,188.600 66.468 C 188.160 66.462,187.440 66.611,187.000 66.800 M216.000 66.800 C 216.330 67.013,216.960 67.178,217.400 67.166 L 218.200 67.144 217.400 66.800 C 216.204 66.286,215.205 66.286,216.000 66.800 M181.200 68.200 C 180.430 68.497,180.070 68.745,180.400 68.752 C 180.730 68.758,181.540 68.517,182.200 68.214 C 183.745 67.507,183.026 67.497,181.200 68.200 M325.878 68.995 C 326.244 69.762,326.614 70.319,326.701 70.232 C 326.884 70.049,325.670 67.600,325.396 67.600 C 325.295 67.600,325.512 68.228,325.878 68.995 M173.400 71.431 C 172.520 71.957,171.980 72.389,172.200 72.391 C 172.420 72.394,173.320 71.952,174.200 71.410 C 175.080 70.868,175.620 70.436,175.400 70.450 C 175.180 70.464,174.280 70.905,173.400 71.431 M169.000 74.235 L 167.800 75.266 169.100 74.406 C 169.815 73.933,170.400 73.468,170.400 73.373 C 170.400 73.073,170.231 73.178,169.000 74.235 M73.781 76.437 C 73.429 77.118,73.212 77.745,73.299 77.832 C 73.386 77.919,73.756 77.362,74.122 76.595 C 74.944 74.870,74.659 74.738,73.781 76.437 M236.400 75.651 C 240.620 79.749,244.511 83.265,242.800 81.434 C 241.590 80.140,240.010 78.544,239.289 77.889 C 237.861 76.591,235.426 74.705,236.400 75.651 M164.607 77.993 C 163.752 78.869,163.130 79.634,163.226 79.694 C 163.322 79.753,164.144 79.036,165.053 78.101 C 165.962 77.165,166.584 76.400,166.434 76.400 C 166.285 76.400,165.463 77.117,164.607 77.993 M72.450 79.450 C 72.186 80.029,72.062 80.595,72.174 80.707 C 72.286 80.819,72.568 80.411,72.800 79.800 C 73.349 78.357,73.073 78.082,72.450 79.450 M160.400 82.800 C 159.703 83.680,159.223 84.400,159.333 84.400 C 159.443 84.400,160.103 83.680,160.800 82.800 C 161.497 81.920,161.977 81.200,161.867 81.200 C 161.757 81.200,161.097 81.920,160.400 82.800 M331.044 83.000 C 331.373 84.471,331.602 84.790,331.594 83.767 C 331.591 83.345,331.405 82.730,331.182 82.400 C 330.885 81.962,330.848 82.124,331.044 83.000 M70.444 84.444 C 70.198 85.151,70.066 85.800,70.152 85.885 C 70.238 85.971,70.509 85.462,70.756 84.756 C 71.002 84.049,71.134 83.400,71.048 83.315 C 70.962 83.229,70.691 83.738,70.444 84.444 M246.000 85.600 C 246.697 86.480,247.357 87.200,247.467 87.200 C 247.577 87.200,247.097 86.480,246.400 85.600 C 245.703 84.720,245.043 84.000,244.933 84.000 C 244.823 84.000,245.303 84.720,246.000 85.600 M158.553 85.300 C 157.176 87.636,157.086 87.835,157.787 87.000 C 158.600 86.032,159.300 84.800,159.038 84.800 C 158.933 84.800,158.715 85.025,158.553 85.300 M331.848 86.200 C 331.991 86.860,332.266 87.670,332.459 88.000 C 332.684 88.384,332.718 88.168,332.552 87.400 C 332.409 86.740,332.134 85.930,331.941 85.600 C 331.716 85.216,331.682 85.432,331.848 86.200 M156.322 88.900 C 156.008 89.395,155.347 90.520,154.853 91.400 C 153.795 93.282,154.950 91.817,156.323 89.534 C 157.297 87.914,157.296 87.362,156.322 88.900 M248.678 89.795 C 249.044 90.562,249.414 91.119,249.501 91.032 C 249.684 90.849,248.470 88.400,248.196 88.400 C 248.095 88.400,248.312 89.028,248.678 89.795 M334.120 98.400 C 334.120 99.610,334.195 100.105,334.287 99.500 C 334.378 98.895,334.378 97.905,334.287 97.300 C 334.195 96.695,334.120 97.190,334.120 98.400 M65.701 104.200 C 65.705 105.080,65.787 105.393,65.883 104.895 C 65.979 104.398,65.975 103.678,65.875 103.295 C 65.775 102.913,65.696 103.320,65.701 104.200 M253.761 110.400 C 253.761 113.810,253.822 115.205,253.897 113.500 C 253.972 111.795,253.972 109.005,253.897 107.300 C 253.822 105.595,253.761 106.990,253.761 110.400 M65.293 107.200 C 65.293 107.970,65.375 108.285,65.476 107.900 C 65.576 107.515,65.576 106.885,65.476 106.500 C 65.375 106.115,65.293 106.430,65.293 107.200 M146.865 107.017 C 146.195 108.488,146.323 108.802,147.047 107.465 C 147.386 106.840,147.588 106.254,147.496 106.163 C 147.405 106.071,147.121 106.456,146.865 107.017 M143.593 115.872 C 142.693 118.207,142.695 118.329,143.607 116.672 C 144.070 115.831,144.388 114.964,144.315 114.744 C 144.241 114.524,143.916 115.031,143.593 115.872 M334.509 118.000 C 334.509 118.990,334.587 119.395,334.682 118.900 C 334.778 118.405,334.778 117.595,334.682 117.100 C 334.587 116.605,334.509 117.010,334.509 118.000 M253.000 118.400 C 252.848 119.091,252.807 119.741,252.909 119.842 C 253.011 119.944,253.209 119.453,253.350 118.750 C 253.683 117.083,253.360 116.760,253.000 118.400 M65.606 121.633 C 65.609 122.165,65.789 122.870,66.006 123.200 C 66.282 123.622,66.323 123.385,66.142 122.400 C 65.825 120.675,65.598 120.349,65.606 121.633 M334.067 122.050 C 334.030 122.628,333.905 123.708,333.789 124.450 C 333.596 125.686,333.615 125.717,334.008 124.814 C 334.245 124.271,334.370 123.191,334.286 122.414 C 334.177 121.392,334.116 121.291,334.067 122.050 M140.277 125.077 C 139.900 126.093,139.658 126.991,139.738 127.072 C 139.819 127.152,140.200 126.393,140.585 125.385 C 140.970 124.376,141.212 123.479,141.123 123.390 C 141.035 123.301,140.654 124.060,140.277 125.077 M333.055 128.255 C 332.913 129.286,332.874 130.208,332.969 130.302 C 333.063 130.396,333.265 129.639,333.418 128.618 C 333.571 127.598,333.610 126.676,333.504 126.571 C 333.398 126.465,333.196 127.223,333.055 128.255 M70.425 133.400 C 70.425 133.620,70.690 134.149,71.013 134.576 C 71.336 135.004,71.600 135.173,71.600 134.953 C 71.600 134.733,71.336 134.204,71.013 133.776 C 70.690 133.349,70.425 133.180,70.425 133.400 M136.153 133.700 C 134.776 136.036,134.686 136.235,135.387 135.400 C 136.200 134.432,136.900 133.200,136.638 133.200 C 136.533 133.200,136.315 133.425,136.153 133.700 M131.381 140.500 L 129.800 142.200 131.500 140.619 C 132.435 139.749,133.200 138.984,133.200 138.919 C 133.200 138.616,132.852 138.919,131.381 140.500 M240.439 140.884 C 239.470 141.944,238.750 142.878,238.839 142.960 C 238.927 143.042,239.787 142.222,240.749 141.137 C 241.711 140.052,242.431 139.118,242.349 139.061 C 242.267 139.004,241.407 139.825,240.439 140.884 M79.200 143.400 C 79.946 144.170,80.647 144.800,80.757 144.800 C 80.867 144.800,80.346 144.170,79.600 143.400 C 78.854 142.630,78.153 142.000,78.043 142.000 C 77.933 142.000,78.454 142.630,79.200 143.400 M232.392 149.100 L 228.600 153.000 232.500 149.208 C 236.122 145.686,236.582 145.200,236.292 145.200 C 236.233 145.200,234.478 146.955,232.392 149.100 M327.326 146.700 C 327.189 147.085,327.001 147.580,326.909 147.800 C 326.816 148.020,327.024 147.851,327.370 147.424 C 327.999 146.648,328.189 146.000,327.787 146.000 C 327.671 146.000,327.463 146.315,327.326 146.700 M93.200 151.200 C 94.568 151.638,95.619 151.638,94.600 151.200 C 94.160 151.011,93.440 150.862,93.000 150.868 C 92.357 150.877,92.396 150.943,93.200 151.200 M109.400 152.000 L 107.000 152.266 109.200 152.327 C 110.410 152.360,111.670 152.213,112.000 152.000 C 112.330 151.787,112.420 151.640,112.200 151.673 C 111.980 151.707,110.720 151.854,109.400 152.000 M98.500 152.287 C 99.105 152.378,100.095 152.378,100.700 152.287 C 101.305 152.195,100.810 152.120,99.600 152.120 C 98.390 152.120,97.895 152.195,98.500 152.287 M103.900 152.682 C 104.395 152.778,105.205 152.778,105.700 152.682 C 106.195 152.587,105.790 152.509,104.800 152.509 C 103.810 152.509,103.405 152.587,103.900 152.682 M225.700 155.150 C 224.545 156.202,223.603 157.229,223.606 157.432 C 223.609 157.634,223.744 157.620,223.906 157.400 C 224.068 157.180,225.137 156.145,226.283 155.100 C 227.428 154.055,228.238 153.208,228.083 153.218 C 227.927 153.228,226.855 154.097,225.700 155.150 M221.500 158.982 C 220.675 159.739,220.000 160.495,220.000 160.661 C 220.000 160.827,220.720 160.259,221.600 159.400 C 223.066 157.969,223.376 157.597,223.100 157.602 C 223.045 157.603,222.325 158.224,221.500 158.982 M321.014 158.635 C 320.641 159.204,320.427 159.761,320.539 159.872 C 320.650 159.983,321.029 159.518,321.381 158.837 C 322.159 157.333,321.944 157.215,321.014 158.635 M212.825 166.808 C 212.069 167.454,211.541 168.074,211.652 168.186 C 211.764 168.297,212.463 167.761,213.206 166.994 C 214.847 165.300,214.683 165.220,212.825 166.808 M207.625 171.608 C 206.869 172.254,206.329 172.856,206.425 172.944 C 206.521 173.032,207.230 172.497,208.000 171.754 C 209.718 170.097,209.494 170.010,207.625 171.608 M204.300 174.629 C 203.475 175.411,202.800 176.166,202.800 176.306 C 202.800 176.447,203.520 175.859,204.400 175.000 C 205.864 173.571,206.178 173.194,205.900 173.203 C 205.845 173.205,205.125 173.847,204.300 174.629 M307.978 176.300 L 306.600 177.800 308.100 176.422 C 309.496 175.138,309.784 174.800,309.478 174.800 C 309.412 174.800,308.737 175.475,307.978 176.300 M303.178 181.500 L 301.800 183.000 303.300 181.622 C 304.696 180.338,304.984 180.000,304.678 180.000 C 304.612 180.000,303.937 180.675,303.178 181.500 M196.000 182.272 C 195.113 183.210,195.097 183.278,195.853 182.876 C 196.322 182.626,196.811 182.147,196.940 181.811 C 197.254 180.994,197.168 181.036,196.000 182.272 M193.722 184.566 C 193.105 185.097,192.690 185.617,192.800 185.720 C 192.910 185.824,193.506 185.389,194.125 184.754 C 195.494 183.350,195.261 183.242,193.722 184.566 M295.988 188.283 C 293.843 190.507,293.744 190.662,295.411 189.183 C 297.225 187.575,299.042 185.600,298.707 185.600 C 298.635 185.600,297.412 186.808,295.988 188.283 M188.975 189.700 L 187.800 191.000 189.100 189.825 C 190.312 188.730,190.584 188.400,190.275 188.400 C 190.206 188.400,189.621 188.985,188.975 189.700 M184.788 193.900 L 182.200 196.600 184.900 194.012 C 186.385 192.588,187.600 191.373,187.600 191.312 C 187.600 191.017,187.193 191.392,184.788 193.900 M288.400 195.400 C 286.761 197.050,285.510 198.400,285.620 198.400 C 285.730 198.400,287.161 197.050,288.800 195.400 C 290.439 193.750,291.690 192.400,291.580 192.400 C 291.470 192.400,290.039 193.750,288.400 195.400 M282.981 200.500 L 281.400 202.200 283.194 200.600 C 284.180 199.720,285.065 198.955,285.161 198.900 C 285.256 198.845,285.160 198.800,284.948 198.800 C 284.736 198.800,283.851 199.565,282.981 200.500 M274.400 208.271 L 273.000 209.699 274.500 208.549 C 275.325 207.917,276.000 207.265,276.000 207.100 C 276.000 206.659,275.929 206.711,274.400 208.271 M268.930 213.209 C 267.791 214.304,266.988 215.200,267.145 215.200 C 267.302 215.200,268.317 214.300,269.400 213.200 C 271.944 210.618,271.617 210.624,268.930 213.209 M169.353 214.900 C 167.976 217.236,167.886 217.435,168.587 216.600 C 169.400 215.632,170.100 214.400,169.838 214.400 C 169.733 214.400,169.515 214.625,169.353 214.900 M264.181 217.700 L 262.600 219.400 264.300 217.819 C 265.235 216.949,266.000 216.184,266.000 216.119 C 266.000 215.816,265.652 216.119,264.181 217.700 M165.878 221.805 C 165.512 222.572,165.295 223.200,165.396 223.200 C 165.670 223.200,166.884 220.751,166.701 220.568 C 166.614 220.481,166.244 221.038,165.878 221.805 M254.181 226.871 C 252.856 228.271,252.803 228.384,253.851 227.571 C 254.932 226.731,256.246 225.200,255.885 225.200 C 255.817 225.200,255.051 225.952,254.181 226.871 M248.778 232.300 L 247.400 233.800 248.900 232.422 C 249.725 231.663,250.400 230.988,250.400 230.922 C 250.400 230.616,250.062 230.904,248.778 232.300 M160.629 236.229 C 160.481 236.815,160.438 237.372,160.532 237.466 C 160.627 237.560,160.824 237.158,160.971 236.571 C 161.119 235.985,161.162 235.428,161.068 235.334 C 160.973 235.240,160.776 235.642,160.629 236.229 M244.801 236.598 C 244.286 237.148,243.939 237.664,244.032 237.746 C 244.124 237.828,244.619 237.378,245.130 236.747 C 246.276 235.335,246.074 235.244,244.801 236.598 M159.633 240.633 C 159.375 241.659,159.239 242.572,159.331 242.664 C 159.422 242.756,159.709 241.992,159.967 240.967 C 160.225 239.941,160.361 239.028,160.269 238.936 C 160.178 238.844,159.891 239.608,159.633 240.633 M158.893 244.400 C 158.893 245.170,158.975 245.485,159.076 245.100 C 159.176 244.715,159.176 244.085,159.076 243.700 C 158.975 243.315,158.893 243.630,158.893 244.400 M158.501 247.400 C 158.505 248.280,158.587 248.593,158.683 248.095 C 158.779 247.598,158.775 246.878,158.675 246.495 C 158.575 246.113,158.496 246.520,158.501 247.400 M157.856 251.684 C 157.721 252.188,157.630 253.230,157.652 254.000 C 157.686 255.134,157.762 254.989,158.052 253.239 C 158.420 251.025,158.296 250.043,157.856 251.684 M157.334 264.000 C 157.334 265.650,157.405 266.325,157.491 265.500 C 157.578 264.675,157.578 263.325,157.491 262.500 C 157.405 261.675,157.334 262.350,157.334 264.000 M232.200 262.000 C 232.050 262.473,232.017 262.950,232.127 263.060 C 232.237 263.170,232.450 262.873,232.600 262.400 C 232.750 261.927,232.783 261.450,232.673 261.340 C 232.563 261.230,232.350 261.527,232.200 262.000 M157.628 272.033 C 157.644 273.005,157.806 274.160,157.990 274.600 C 158.192 275.083,158.238 274.449,158.107 273.000 C 157.845 270.110,157.589 269.593,157.628 272.033 M158.840 278.800 C 158.808 279.490,159.724 282.257,160.114 282.647 C 160.354 282.888,160.046 281.721,159.203 279.200 C 159.019 278.650,158.856 278.470,158.840 278.800 M223.061 290.667 C 222.654 291.210,222.405 291.738,222.507 291.840 C 222.608 291.942,223.000 291.554,223.378 290.978 C 224.267 289.621,224.022 289.381,223.061 290.667 M166.201 293.198 C 166.860 293.967,167.445 294.672,167.500 294.765 C 167.555 294.857,167.687 294.846,167.794 294.739 C 167.901 294.633,167.316 293.928,166.495 293.173 L 165.002 291.800 166.201 293.198 M220.581 294.100 L 219.000 295.800 220.700 294.219 C 221.635 293.349,222.400 292.584,222.400 292.519 C 222.400 292.216,222.052 292.519,220.581 294.100 M214.247 299.598 C 212.345 301.037,211.944 301.447,213.000 300.874 C 213.917 300.376,216.301 298.430,216.000 298.426 C 215.890 298.424,215.101 298.951,214.247 299.598 M185.600 304.394 C 185.930 304.611,186.635 304.791,187.167 304.794 C 188.451 304.802,188.125 304.575,186.400 304.258 C 185.415 304.077,185.178 304.118,185.600 304.394 M201.200 304.400 C 199.816 304.691,199.814 304.695,201.000 304.741 C 201.660 304.767,202.470 304.613,202.800 304.400 C 203.466 303.970,203.245 303.970,201.200 304.400 M193.100 305.089 C 193.815 305.178,194.985 305.178,195.700 305.089 C 196.415 305.001,195.830 304.928,194.400 304.928 C 192.970 304.928,192.385 305.001,193.100 305.089 M195.907 319.890 C 196.626 319.979,197.706 319.977,198.307 319.886 C 198.908 319.795,198.320 319.722,197.000 319.724 C 195.680 319.726,195.188 319.801,195.907 319.890 M190.700 320.282 C 191.195 320.378,192.005 320.378,192.500 320.282 C 192.995 320.187,192.590 320.109,191.600 320.109 C 190.610 320.109,190.205 320.187,190.700 320.282 M201.105 320.283 C 201.602 320.379,202.322 320.375,202.705 320.275 C 203.087 320.175,202.680 320.096,201.800 320.101 C 200.920 320.105,200.607 320.187,201.105 320.283 M211.600 322.286 C 211.930 322.409,212.695 322.760,213.300 323.065 C 213.905 323.371,214.400 323.472,214.400 323.291 C 214.400 322.954,212.044 321.974,211.372 322.032 C 211.167 322.049,211.270 322.164,211.600 322.286 M220.400 326.511 C 220.400 326.587,220.985 327.078,221.700 327.601 C 222.504 328.190,222.784 328.287,222.433 327.855 C 221.900 327.199,220.400 326.207,220.400 326.511 M167.300 330.700 C 166.225 331.745,165.804 332.240,166.365 331.800 C 167.918 330.583,169.783 328.800,169.504 328.800 C 169.367 328.800,168.376 329.655,167.300 330.700 M226.800 331.790 C 228.010 333.105,229.183 334.306,229.408 334.459 C 229.632 334.611,230.608 335.831,231.577 337.168 C 232.546 338.506,233.408 339.600,233.493 339.600 C 234.120 339.600,229.879 334.397,227.136 331.800 L 224.600 329.400 226.800 331.790 M161.832 336.313 L 161.064 337.400 162.132 336.430 C 163.254 335.411,163.393 335.192,162.900 335.213 C 162.735 335.219,162.254 335.714,161.832 336.313 M158.214 341.435 C 157.841 342.004,157.627 342.561,157.739 342.672 C 157.850 342.783,158.229 342.318,158.581 341.637 C 159.359 340.133,159.144 340.015,158.214 341.435 M235.478 343.395 C 235.844 344.162,236.214 344.719,236.301 344.632 C 236.484 344.449,235.270 342.000,234.996 342.000 C 234.895 342.000,235.112 342.628,235.478 343.395 M238.037 349.400 C 238.023 349.620,238.267 350.610,238.579 351.600 C 238.891 352.590,239.145 353.040,239.143 352.600 C 239.139 351.766,238.079 348.700,238.037 349.400 M153.800 352.400 C 153.648 353.091,153.607 353.741,153.709 353.842 C 153.811 353.944,154.009 353.453,154.150 352.750 C 154.483 351.083,154.160 350.760,153.800 352.400 M152.985 356.585 C 152.830 357.823,152.790 358.923,152.895 359.029 C 153.001 359.134,153.207 358.201,153.354 356.954 C 153.500 355.707,153.541 354.607,153.443 354.510 C 153.346 354.412,153.139 355.346,152.985 356.585 M240.087 363.450 C 240.039 366.338,239.911 369.308,239.801 370.050 L 239.603 371.400 240.013 370.099 C 240.239 369.384,240.367 366.414,240.299 363.499 L 240.175 358.200 240.087 363.450 M152.514 363.800 C 152.517 364.900,152.595 365.303,152.687 364.695 C 152.779 364.086,152.777 363.186,152.682 362.695 C 152.587 362.203,152.511 362.700,152.514 363.800 M152.847 369.633 C 152.873 370.385,153.041 371.540,153.220 372.200 C 153.435 372.989,153.470 372.578,153.323 371.000 C 153.077 368.355,152.773 367.481,152.847 369.633 M153.680 374.600 C 153.680 375.040,153.824 375.850,154.000 376.400 C 154.254 377.192,154.320 377.233,154.320 376.600 C 154.320 376.160,154.176 375.350,154.000 374.800 C 153.746 374.008,153.680 373.967,153.680 374.600 M238.311 377.261 C 237.941 378.641,237.703 379.836,237.782 379.915 C 237.998 380.131,239.263 375.590,239.113 375.139 C 239.042 374.925,238.681 375.880,238.311 377.261 M154.572 378.600 C 154.729 379.260,155.029 379.976,155.239 380.191 C 155.450 380.406,155.410 379.956,155.151 379.191 C 154.546 377.400,154.205 377.052,154.572 378.600 M235.665 384.217 C 234.995 385.688,235.123 386.002,235.847 384.665 C 236.186 384.040,236.388 383.454,236.296 383.363 C 236.205 383.271,235.921 383.656,235.665 384.217 M158.209 386.626 C 158.581 387.301,159.241 388.291,159.676 388.826 L 160.467 389.800 159.791 388.574 C 159.419 387.899,158.759 386.909,158.324 386.374 L 157.533 385.400 158.209 386.626 M231.683 390.702 C 230.140 392.766,230.113 392.837,231.417 391.400 C 232.720 389.965,233.816 388.397,233.514 388.402 C 233.451 388.402,232.627 389.437,231.683 390.702 M163.800 394.000 C 164.883 395.100,165.860 396.000,165.970 396.000 C 166.080 396.000,165.283 395.100,164.200 394.000 C 163.117 392.900,162.140 392.000,162.030 392.000 C 161.920 392.000,162.717 392.900,163.800 394.000 M166.998 396.737 C 167.434 397.252,168.153 397.859,168.596 398.086 C 169.445 398.521,169.321 398.387,167.403 396.794 C 166.248 395.835,166.234 395.833,166.998 396.737 M225.322 397.029 L 224.200 398.058 225.500 397.154 C 226.215 396.657,226.800 396.193,226.800 396.125 C 226.800 395.809,226.358 396.080,225.322 397.029 M171.200 400.000 C 171.707 400.440,172.213 400.800,172.323 400.800 C 172.434 400.800,172.198 400.440,171.800 400.000 C 171.402 399.560,170.896 399.200,170.677 399.200 C 170.457 399.200,170.693 399.560,171.200 400.000 M185.800 406.400 C 185.936 406.620,186.442 406.787,186.924 406.772 C 187.769 406.745,187.771 406.731,187.000 406.400 C 185.899 405.927,185.508 405.927,185.800 406.400 M189.505 407.083 C 190.002 407.179,190.722 407.175,191.105 407.075 C 191.487 406.975,191.080 406.896,190.200 406.901 C 189.320 406.905,189.007 406.987,189.505 407.083 M202.705 407.083 C 203.202 407.179,203.922 407.175,204.305 407.075 C 204.687 406.975,204.280 406.896,203.400 406.901 C 202.520 406.905,202.207 406.987,202.705 407.083 M193.300 407.487 C 193.905 407.578,194.895 407.578,195.500 407.487 C 196.105 407.395,195.610 407.320,194.400 407.320 C 193.190 407.320,192.695 407.395,193.300 407.487 M198.307 407.490 C 199.026 407.579,200.106 407.577,200.707 407.486 C 201.308 407.395,200.720 407.322,199.400 407.324 C 198.080 407.326,197.588 407.401,198.307 407.490 " stroke="none" fill="#949494" fill-rule="evenodd"></path><path id="path4" d="M201.300 1.097 C 203.005 1.172,205.795 1.172,207.500 1.097 C 209.205 1.022,207.810 0.961,204.400 0.961 C 200.990 0.961,199.595 1.022,201.300 1.097 M191.500 1.489 C 192.215 1.578,193.385 1.578,194.100 1.489 C 194.815 1.401,194.230 1.328,192.800 1.328 C 191.370 1.328,190.785 1.401,191.500 1.489 M213.107 1.490 C 213.826 1.579,214.906 1.577,215.507 1.486 C 216.108 1.395,215.520 1.322,214.200 1.324 C 212.880 1.326,212.388 1.401,213.107 1.490 M183.400 2.013 C 182.690 2.201,183.506 2.241,185.400 2.112 C 187.160 1.991,188.675 1.826,188.767 1.746 C 189.080 1.471,184.603 1.694,183.400 2.013 M216.833 1.745 C 216.925 1.824,218.620 1.983,220.600 2.098 C 222.580 2.213,223.750 2.166,223.200 1.994 C 222.217 1.685,216.507 1.462,216.833 1.745 M176.100 3.076 C 176.485 3.176,177.115 3.176,177.500 3.076 C 177.885 2.975,177.570 2.893,176.800 2.893 C 176.030 2.893,175.715 2.975,176.100 3.076 M229.300 3.076 C 229.685 3.176,230.315 3.176,230.700 3.076 C 231.085 2.975,230.770 2.893,230.000 2.893 C 229.230 2.893,228.915 2.975,229.300 3.076 M171.200 3.704 C 169.990 3.928,169.182 4.178,169.405 4.258 C 169.627 4.338,171.067 4.153,172.605 3.848 C 174.142 3.543,174.950 3.294,174.400 3.294 C 173.850 3.295,172.410 3.479,171.200 3.704 M232.400 3.580 C 233.399 3.920,235.882 4.132,235.567 3.851 C 235.475 3.769,234.500 3.599,233.400 3.472 C 232.051 3.316,231.726 3.351,232.400 3.580 M166.000 4.800 C 165.196 5.057,165.157 5.123,165.800 5.132 C 166.240 5.138,166.960 4.989,167.400 4.800 C 168.419 4.362,167.368 4.362,166.000 4.800 M239.800 4.800 C 239.936 5.020,240.442 5.187,240.924 5.172 C 241.769 5.145,241.771 5.131,241.000 4.800 C 239.899 4.327,239.508 4.327,239.800 4.800 M159.000 6.615 C 157.423 7.161,157.420 7.165,158.800 6.932 C 160.432 6.657,162.100 6.048,161.200 6.056 C 160.870 6.059,159.880 6.311,159.000 6.615 M252.400 8.200 C 253.170 8.497,254.070 8.739,254.400 8.739 C 254.730 8.739,254.370 8.497,253.600 8.200 C 252.830 7.903,251.930 7.661,251.600 7.661 C 251.270 7.661,251.630 7.903,252.400 8.200 M261.200 11.200 C 261.970 11.622,262.780 11.966,263.000 11.966 C 263.220 11.966,262.770 11.622,262.000 11.200 C 261.230 10.778,260.420 10.434,260.200 10.434 C 259.980 10.434,260.430 10.778,261.200 11.200 M141.642 12.434 C 141.115 12.645,140.784 12.917,140.907 13.040 C 141.029 13.162,141.640 12.986,142.265 12.647 C 143.521 11.966,143.139 11.835,141.642 12.434 M265.600 13.000 C 266.590 13.530,267.580 13.964,267.800 13.964 C 268.020 13.964,267.390 13.530,266.400 13.000 C 265.410 12.470,264.420 12.036,264.200 12.036 C 263.980 12.036,264.610 12.470,265.600 13.000 M272.310 16.001 C 274.008 17.037,274.564 17.036,273.000 16.000 C 272.340 15.563,271.620 15.205,271.400 15.204 C 271.180 15.204,271.589 15.562,272.310 16.001 M129.000 18.800 C 128.340 19.237,127.980 19.592,128.200 19.588 C 128.601 19.582,130.776 18.023,130.400 18.012 C 130.290 18.008,129.660 18.363,129.000 18.800 M276.800 18.184 C 276.800 18.294,277.520 18.751,278.400 19.200 C 279.280 19.649,280.000 19.926,280.000 19.816 C 280.000 19.706,279.280 19.249,278.400 18.800 C 277.520 18.351,276.800 18.074,276.800 18.184 M125.300 20.846 C 123.937 21.719,123.495 22.306,124.700 21.643 C 125.618 21.139,127.056 20.027,126.800 20.019 C 126.690 20.016,126.015 20.388,125.300 20.846 M281.600 20.950 C 281.600 21.044,282.241 21.499,283.024 21.961 C 283.807 22.423,284.336 22.620,284.199 22.398 C 283.931 21.964,281.600 20.666,281.600 20.950 M120.900 23.596 C 119.560 24.413,119.053 25.129,120.300 24.443 C 121.229 23.933,122.652 22.828,122.400 22.814 C 122.290 22.808,121.615 23.160,120.900 23.596 M285.200 22.946 C 285.200 23.056,285.740 23.530,286.400 24.000 C 287.060 24.470,287.600 24.764,287.600 24.654 C 287.600 24.544,287.060 24.070,286.400 23.600 C 285.740 23.130,285.200 22.836,285.200 22.946 M301.600 35.710 C 301.600 35.771,302.995 37.166,304.700 38.810 L 307.800 41.800 304.810 38.700 C 302.033 35.821,301.600 35.417,301.600 35.710 M96.378 43.500 L 95.000 45.000 96.500 43.622 C 97.325 42.863,98.000 42.188,98.000 42.122 C 98.000 41.816,97.662 42.104,96.378 43.500 M308.314 42.604 C 308.541 43.047,309.148 43.766,309.663 44.202 C 310.567 44.966,310.565 44.952,309.606 43.797 C 308.013 41.879,307.879 41.755,308.314 42.604 M93.429 46.719 L 92.287 48.200 93.623 46.913 C 94.358 46.205,94.872 45.538,94.765 45.431 C 94.658 45.325,94.057 45.904,93.429 46.719 M310.800 45.464 C 310.800 45.682,311.295 46.297,311.900 46.830 L 313.000 47.800 312.000 46.600 C 311.450 45.940,310.955 45.325,310.900 45.233 C 310.845 45.142,310.800 45.245,310.800 45.464 M313.855 49.400 C 314.467 50.280,315.020 51.075,315.084 51.167 C 315.148 51.258,315.200 51.162,315.200 50.952 C 315.200 50.742,314.647 49.947,313.971 49.185 L 312.742 47.800 313.855 49.400 M88.034 53.353 L 87.069 54.600 88.213 53.512 C 88.843 52.914,89.277 52.353,89.179 52.265 C 89.080 52.177,88.565 52.667,88.034 53.353 M81.077 63.500 C 79.643 65.804,79.539 66.000,79.742 66.000 C 79.846 66.000,80.485 65.100,81.162 64.000 C 81.839 62.900,82.307 62.000,82.201 62.000 C 82.096 62.000,81.590 62.675,81.077 63.500 M323.491 64.700 C 323.986 66.002,324.795 67.403,324.798 66.961 C 324.800 66.463,323.624 64.000,323.383 64.000 C 323.296 64.000,323.345 64.315,323.491 64.700 M197.200 65.170 C 196.210 65.308,198.550 65.417,202.400 65.414 C 206.939 65.410,208.486 65.317,206.800 65.151 C 203.579 64.832,199.574 64.840,197.200 65.170 M78.785 67.318 C 77.946 68.583,77.531 69.690,78.005 69.397 C 78.222 69.263,78.400 68.953,78.400 68.708 C 78.400 68.463,78.699 67.933,79.064 67.529 C 79.430 67.125,79.648 66.714,79.549 66.616 C 79.450 66.517,79.107 66.833,78.785 67.318 M185.400 66.800 C 184.311 67.077,184.293 67.107,185.200 67.125 C 185.750 67.135,186.560 66.989,187.000 66.800 C 187.986 66.376,187.066 66.376,185.400 66.800 M217.400 66.800 C 217.840 66.989,218.560 67.138,219.000 67.132 C 219.643 67.123,219.604 67.057,218.800 66.800 C 217.432 66.362,216.381 66.362,217.400 66.800 M325.234 68.200 C 325.234 68.420,325.578 69.230,326.000 70.000 C 326.422 70.770,326.766 71.220,326.766 71.000 C 326.766 70.780,326.422 69.970,326.000 69.200 C 325.578 68.430,325.234 67.980,325.234 68.200 M177.733 69.122 C 176.816 69.495,175.916 69.950,175.733 70.133 C 175.550 70.317,176.390 70.077,177.600 69.600 C 178.810 69.123,179.875 68.658,179.967 68.567 C 180.307 68.227,179.351 68.465,177.733 69.122 M173.500 71.029 C 172.005 71.840,172.096 72.178,173.600 71.400 C 174.260 71.059,174.800 70.694,174.800 70.590 C 174.800 70.332,174.757 70.347,173.500 71.029 M229.600 71.164 C 230.150 71.614,230.780 71.983,231.000 71.985 C 231.428 71.988,230.705 71.434,229.400 70.760 C 228.869 70.485,228.936 70.621,229.600 71.164 M75.625 73.300 C 74.837 74.867,74.832 74.922,75.564 74.000 C 76.271 73.109,76.924 71.600,76.603 71.600 C 76.536 71.600,76.096 72.365,75.625 73.300 M232.400 72.582 C 232.400 72.671,233.210 73.290,234.200 73.958 C 235.190 74.626,236.000 75.043,236.000 74.884 C 236.000 74.724,235.190 74.105,234.200 73.507 C 233.210 72.909,232.400 72.493,232.400 72.582 M164.985 77.283 L 163.000 79.366 164.856 77.783 C 166.407 76.460,167.488 75.200,167.072 75.200 C 167.016 75.200,166.077 76.137,164.985 77.283 M73.872 77.019 C 72.932 78.989,73.064 79.324,74.047 77.462 C 74.493 76.616,74.787 75.854,74.701 75.767 C 74.614 75.681,74.241 76.244,73.872 77.019 M240.997 79.518 C 242.756 81.323,244.265 82.800,244.352 82.800 C 244.626 82.800,240.659 78.660,239.200 77.423 C 238.430 76.770,239.239 77.713,240.997 79.518 M329.018 77.700 C 329.168 78.195,329.455 78.776,329.656 78.991 C 329.857 79.206,329.819 78.801,329.572 78.091 C 329.065 76.638,328.597 76.308,329.018 77.700 M332.046 88.000 C 332.065 88.330,332.224 89.050,332.400 89.600 L 332.720 90.600 332.754 89.600 C 332.773 89.050,332.613 88.330,332.400 88.000 C 332.055 87.467,332.016 87.467,332.046 88.000 M153.753 92.500 C 153.590 92.775,153.175 93.443,152.829 93.985 C 152.438 94.597,152.390 94.852,152.703 94.659 C 153.220 94.340,154.568 92.000,154.234 92.000 C 154.131 92.000,153.915 92.225,153.753 92.500 M333.247 94.433 C 333.273 95.185,333.441 96.340,333.620 97.000 C 333.835 97.789,333.870 97.378,333.723 95.800 C 333.477 93.155,333.173 92.281,333.247 94.433 M251.214 94.620 C 251.222 94.829,251.499 95.450,251.831 96.000 L 252.433 97.000 252.172 96.000 C 251.899 94.957,251.189 93.933,251.214 94.620 M67.449 95.415 C 67.312 95.773,67.215 96.366,67.234 96.733 C 67.253 97.100,67.427 96.869,67.621 96.220 C 67.998 94.958,67.865 94.333,67.449 95.415 M151.381 96.837 C 151.029 97.518,150.812 98.145,150.899 98.232 C 150.986 98.319,151.356 97.762,151.722 96.995 C 152.544 95.270,152.259 95.138,151.381 96.837 M334.298 103.600 C 334.415 105.470,334.576 107.075,334.656 107.167 C 334.939 107.494,334.714 102.180,334.403 101.200 C 334.224 100.637,334.178 101.686,334.298 103.600 M66.200 102.400 C 66.046 103.310,66.004 104.138,66.107 104.240 C 66.210 104.343,66.413 103.677,66.560 102.760 C 66.707 101.843,66.748 101.015,66.653 100.920 C 66.558 100.824,66.354 101.490,66.200 102.400 M253.473 102.400 C 253.604 103.390,253.776 104.275,253.856 104.367 C 254.157 104.714,253.928 102.164,253.590 101.400 C 253.353 100.866,253.314 101.198,253.473 102.400 M65.393 108.538 C 65.238 110.187,65.192 111.775,65.290 112.068 C 65.388 112.361,65.594 111.091,65.748 109.247 C 65.902 107.403,65.948 105.815,65.851 105.717 C 65.753 105.620,65.547 106.889,65.393 108.538 M254.153 110.600 C 254.153 113.240,254.218 114.268,254.297 112.884 C 254.375 111.501,254.374 109.341,254.295 108.084 C 254.216 106.828,254.152 107.960,254.153 110.600 M334.199 116.081 C 334.046 117.916,333.989 119.864,334.073 120.409 C 334.158 120.954,334.365 119.535,334.535 117.255 C 334.704 114.975,334.760 113.027,334.660 112.926 C 334.559 112.826,334.351 114.245,334.199 116.081 M143.265 115.817 C 142.595 117.288,142.723 117.602,143.447 116.265 C 143.786 115.640,143.988 115.054,143.896 114.963 C 143.805 114.871,143.521 115.256,143.265 115.817 M65.481 118.400 C 65.606 119.610,65.774 120.675,65.854 120.767 C 66.135 121.087,65.917 118.191,65.587 117.200 C 65.371 116.554,65.334 116.980,65.481 118.400 M253.649 117.000 C 253.616 117.440,253.496 118.250,253.383 118.800 L 253.177 119.800 253.606 118.819 C 253.842 118.279,253.961 117.469,253.872 117.019 C 253.713 116.221,253.707 116.221,253.649 117.000 M140.444 123.644 C 140.198 124.351,140.066 125.000,140.152 125.085 C 140.238 125.171,140.509 124.662,140.756 123.956 C 141.002 123.249,141.134 122.600,141.048 122.515 C 140.962 122.429,140.691 122.938,140.444 123.644 M333.469 123.556 C 333.321 124.295,333.220 125.283,333.244 125.750 C 333.268 126.218,333.447 125.790,333.642 124.800 C 333.837 123.810,333.938 122.823,333.867 122.606 C 333.796 122.390,333.617 122.817,333.469 123.556 M251.280 124.880 C 250.801 126.014,250.472 127.006,250.550 127.083 C 250.628 127.161,251.088 126.301,251.573 125.173 C 252.059 124.045,252.387 123.054,252.303 122.970 C 252.220 122.886,251.759 123.746,251.280 124.880 M138.672 128.219 C 137.732 130.189,137.864 130.524,138.847 128.662 C 139.293 127.816,139.587 127.054,139.501 126.967 C 139.414 126.881,139.041 127.444,138.672 128.219 M68.007 128.200 C 68.004 128.643,69.968 131.955,69.988 131.541 C 69.994 131.398,69.552 130.498,69.005 129.541 C 68.457 128.583,68.008 127.980,68.007 128.200 M248.253 130.900 L 247.533 132.200 248.358 131.200 C 249.089 130.313,249.414 129.600,249.086 129.600 C 249.024 129.600,248.649 130.185,248.253 130.900 M332.449 130.400 C 332.416 130.730,332.289 131.450,332.167 132.000 C 331.975 132.864,332.007 132.903,332.399 132.288 C 332.648 131.897,332.775 131.177,332.681 130.688 C 332.586 130.200,332.482 130.070,332.449 130.400 M70.360 132.600 C 71.034 133.905,71.588 134.628,71.585 134.200 C 71.583 133.980,71.214 133.350,70.764 132.800 C 70.221 132.136,70.085 132.069,70.360 132.600 M244.970 135.676 C 242.505 139.084,241.577 140.514,242.294 139.800 C 243.267 138.831,247.786 132.400,247.494 132.400 C 247.409 132.400,246.274 133.874,244.970 135.676 M134.075 136.384 C 133.594 137.035,133.200 137.700,133.200 137.862 C 133.200 138.023,133.650 137.545,134.200 136.800 C 134.750 136.055,135.200 135.390,135.200 135.322 C 135.200 134.995,134.875 135.302,134.075 136.384 M330.629 137.029 C 330.481 137.615,330.438 138.172,330.532 138.266 C 330.627 138.360,330.824 137.958,330.971 137.371 C 331.119 136.785,331.162 136.228,331.068 136.134 C 330.973 136.040,330.776 136.442,330.629 137.029 M130.810 140.590 C 129.620 141.795,128.727 142.860,128.825 142.958 C 128.923 143.056,129.960 142.071,131.130 140.768 C 133.793 137.802,133.645 137.719,130.810 140.590 M76.200 140.400 C 77.059 141.280,77.826 142.000,77.904 142.000 C 78.241 142.000,75.362 138.814,75.019 138.807 C 74.809 138.803,75.341 139.520,76.200 140.400 M329.600 140.519 C 329.600 140.657,329.227 141.722,328.771 142.885 C 328.316 144.048,328.109 144.820,328.311 144.600 C 328.870 143.993,330.064 140.730,329.817 140.483 C 329.698 140.364,329.600 140.380,329.600 140.519 M79.600 143.400 C 80.346 144.170,81.047 144.800,81.157 144.800 C 81.267 144.800,80.746 144.170,80.000 143.400 C 79.254 142.630,78.553 142.000,78.443 142.000 C 78.333 142.000,78.854 142.630,79.600 143.400 M126.600 144.660 C 125.395 145.736,125.305 145.885,126.236 145.263 C 127.341 144.524,128.732 143.176,128.349 143.215 C 128.267 143.223,127.480 143.873,126.600 144.660 M237.806 144.288 L 237.104 145.400 238.030 144.511 C 238.539 144.022,238.855 143.522,238.732 143.399 C 238.609 143.276,238.192 143.676,237.806 144.288 M232.792 149.082 L 229.000 152.964 232.800 149.390 C 236.248 146.147,237.135 145.200,236.725 145.200 C 236.648 145.200,234.878 146.947,232.792 149.082 M83.800 146.607 C 84.240 146.966,84.960 147.435,85.400 147.651 L 86.200 148.044 85.400 147.393 C 84.960 147.034,84.240 146.565,83.800 146.349 L 83.000 145.956 83.800 146.607 M123.400 147.050 C 122.681 147.662,122.534 147.905,123.033 147.657 C 123.766 147.293,125.141 145.976,124.749 146.014 C 124.667 146.022,124.060 146.488,123.400 147.050 M86.800 148.196 C 86.800 148.470,89.249 149.684,89.432 149.501 C 89.519 149.414,88.962 149.044,88.195 148.678 C 87.428 148.312,86.800 148.095,86.800 148.196 M120.089 148.665 C 119.368 149.020,118.843 149.377,118.924 149.457 C 119.095 149.628,121.600 148.424,121.600 148.171 C 121.600 147.929,121.547 147.946,120.089 148.665 M96.200 151.580 C 97.434 151.915,100.264 152.118,99.967 151.850 C 99.875 151.768,98.720 151.600,97.400 151.477 C 95.822 151.330,95.411 151.365,96.200 151.580 M110.400 151.600 C 109.033 151.888,109.028 151.895,110.200 151.919 C 110.860 151.933,111.760 151.789,112.200 151.600 C 113.162 151.187,112.364 151.187,110.400 151.600 M324.305 152.500 C 323.444 153.822,322.246 156.265,322.688 155.800 C 323.211 155.250,325.274 151.600,325.063 151.600 C 324.969 151.600,324.628 152.005,324.305 152.500 M102.900 152.291 C 103.725 152.378,105.075 152.378,105.900 152.291 C 106.725 152.205,106.050 152.134,104.400 152.134 C 102.750 152.134,102.075 152.205,102.900 152.291 M228.342 153.075 C 228.264 153.254,227.242 154.274,226.071 155.343 C 224.900 156.412,224.110 157.222,224.314 157.143 C 225.038 156.865,228.908 153.175,228.697 152.964 C 228.580 152.846,228.420 152.896,228.342 153.075 M221.978 159.100 L 220.600 160.600 222.100 159.222 C 223.496 157.938,223.784 157.600,223.478 157.600 C 223.412 157.600,222.737 158.275,221.978 159.100 M318.864 161.475 C 318.129 162.458,317.602 163.335,317.691 163.425 C 317.781 163.514,318.437 162.761,319.150 161.750 C 320.830 159.367,320.603 159.148,318.864 161.475 M215.581 164.762 C 213.447 166.914,213.863 166.669,216.777 164.056 C 217.535 163.377,218.075 162.755,217.977 162.673 C 217.880 162.591,216.801 163.532,215.581 164.762 M315.199 166.900 C 314.610 167.704,314.513 167.984,314.945 167.633 C 315.601 167.100,316.593 165.600,316.289 165.600 C 316.213 165.600,315.722 166.185,315.199 166.900 M209.600 170.200 C 208.628 171.190,207.923 172.000,208.033 172.000 C 208.143 172.000,209.028 171.190,210.000 170.200 C 210.972 169.210,211.677 168.400,211.567 168.400 C 211.457 168.400,210.572 169.210,209.600 170.200 M311.464 171.529 C 310.505 172.589,310.646 172.954,311.633 171.967 C 312.092 171.508,312.391 171.057,312.298 170.964 C 312.205 170.871,311.830 171.125,311.464 171.529 M203.800 175.486 C 202.480 176.724,201.940 177.362,202.600 176.903 C 203.751 176.104,206.748 173.181,206.378 173.218 C 206.280 173.228,205.120 174.249,203.800 175.486 M307.807 175.993 C 306.952 176.869,306.330 177.645,306.426 177.718 C 306.522 177.791,307.298 177.074,308.152 176.125 C 310.101 173.959,309.877 173.873,307.807 175.993 M199.381 179.700 L 197.800 181.400 199.500 179.819 C 201.081 178.348,201.384 178.000,201.081 178.000 C 201.016 178.000,200.251 178.765,199.381 179.700 M301.911 182.067 C 299.993 184.010,298.556 185.600,298.720 185.600 C 298.883 185.600,300.629 183.980,302.600 182.000 C 304.571 180.020,306.007 178.430,305.792 178.467 C 305.576 178.504,303.830 180.124,301.911 182.067 M190.206 188.688 L 189.504 189.800 190.430 188.911 C 190.939 188.422,191.255 187.922,191.132 187.799 C 191.009 187.676,190.592 188.076,190.206 188.688 M294.581 189.300 L 293.000 191.000 294.700 189.419 C 296.281 187.948,296.584 187.600,296.281 187.600 C 296.216 187.600,295.451 188.365,294.581 189.300 M188.400 190.531 C 188.070 190.809,187.081 191.838,186.202 192.818 C 184.854 194.321,184.964 194.258,186.902 192.414 C 188.166 191.211,189.200 190.176,189.200 190.114 C 189.200 189.916,189.017 190.011,188.400 190.531 M285.400 197.874 C 281.462 201.666,281.378 201.773,284.600 198.896 C 288.064 195.803,290.326 193.580,289.970 193.618 C 289.876 193.628,287.820 195.543,285.400 197.874 M181.600 197.437 C 181.600 197.641,181.143 198.301,180.584 198.904 C 180.025 199.507,179.721 200.000,179.909 200.000 C 180.394 200.000,182.118 197.585,181.835 197.302 C 181.706 197.173,181.600 197.234,181.600 197.437 M175.904 204.844 C 175.301 205.700,174.941 206.398,175.104 206.395 C 175.435 206.390,177.331 203.591,177.129 203.406 C 177.058 203.341,176.507 203.988,175.904 204.844 M277.600 205.000 C 276.628 205.990,275.923 206.800,276.033 206.800 C 276.143 206.800,277.028 205.990,278.000 205.000 C 278.972 204.010,279.677 203.200,279.567 203.200 C 279.457 203.200,278.572 204.010,277.600 205.000 M174.153 207.300 C 172.776 209.636,172.686 209.835,173.387 209.000 C 174.200 208.032,174.900 206.800,174.638 206.800 C 174.533 206.800,174.315 207.025,174.153 207.300 M272.700 209.429 C 271.875 210.211,271.200 210.966,271.200 211.106 C 271.200 211.247,271.920 210.659,272.800 209.800 C 274.264 208.371,274.578 207.994,274.300 208.003 C 274.245 208.005,273.525 208.647,272.700 209.429 M171.814 211.035 C 171.441 211.604,171.205 212.138,171.289 212.222 C 171.373 212.307,171.758 211.841,172.144 211.188 C 173.006 209.728,172.748 209.609,171.814 211.035 M269.400 212.331 C 268.740 212.940,267.953 213.745,267.651 214.119 C 266.633 215.382,267.422 214.812,269.200 213.000 C 271.154 211.009,271.276 210.599,269.400 212.331 M263.781 217.700 L 262.200 219.400 263.900 217.819 C 264.835 216.949,265.600 216.184,265.600 216.119 C 265.600 215.816,265.252 216.119,263.781 217.700 M260.000 221.000 C 259.028 221.990,258.323 222.800,258.433 222.800 C 258.543 222.800,259.428 221.990,260.400 221.000 C 261.372 220.010,262.077 219.200,261.967 219.200 C 261.857 219.200,260.972 220.010,260.000 221.000 M256.000 224.600 C 255.722 224.935,255.679 225.200,255.902 225.200 C 256.122 225.200,256.526 224.930,256.800 224.600 C 257.078 224.265,257.121 224.000,256.898 224.000 C 256.678 224.000,256.274 224.270,256.000 224.600 M251.192 229.500 L 247.400 233.400 251.300 229.608 C 254.922 226.086,255.382 225.600,255.092 225.600 C 255.033 225.600,253.278 227.355,251.192 229.500 M162.609 230.543 C 162.494 230.904,162.316 231.470,162.213 231.800 C 162.109 232.130,162.114 232.400,162.222 232.400 C 162.528 232.400,163.248 230.315,163.021 230.087 C 162.910 229.976,162.725 230.181,162.609 230.543 M161.449 234.215 C 161.312 234.573,161.215 235.166,161.234 235.533 C 161.253 235.900,161.427 235.669,161.621 235.020 C 161.998 233.758,161.865 233.133,161.449 234.215 M245.385 235.477 C 243.834 237.314,242.292 239.392,243.068 238.600 C 245.414 236.205,247.641 233.600,247.343 233.600 C 247.137 233.600,246.256 234.445,245.385 235.477 M160.629 237.429 C 160.481 238.015,160.438 238.572,160.532 238.666 C 160.627 238.760,160.824 238.358,160.971 237.771 C 161.119 237.185,161.162 236.628,161.068 236.534 C 160.973 236.440,160.776 236.842,160.629 237.429 M159.429 242.629 C 159.281 243.215,159.251 243.784,159.361 243.894 C 159.471 244.004,159.681 243.615,159.829 243.029 C 159.976 242.442,160.006 241.873,159.896 241.763 C 159.786 241.653,159.576 242.042,159.429 242.629 M239.353 243.300 C 237.976 245.636,237.886 245.835,238.587 245.000 C 239.400 244.032,240.100 242.800,239.838 242.800 C 239.733 242.800,239.515 243.025,239.353 243.300 M235.855 249.455 C 235.476 250.249,235.253 250.986,235.359 251.093 C 235.466 251.199,235.836 250.609,236.182 249.782 C 236.998 247.829,236.749 247.580,235.855 249.455 M158.509 250.400 C 158.509 251.390,158.587 251.795,158.682 251.300 C 158.778 250.805,158.778 249.995,158.682 249.500 C 158.587 249.005,158.509 249.410,158.509 250.400 M158.093 253.600 C 158.093 254.370,158.175 254.685,158.276 254.300 C 158.376 253.915,158.376 253.285,158.276 252.900 C 158.175 252.515,158.093 252.830,158.093 253.600 M157.767 262.800 C 157.767 267.090,157.826 268.845,157.898 266.700 C 157.970 264.555,157.970 261.045,157.898 258.900 C 157.826 256.755,157.767 258.510,157.767 262.800 M232.473 260.073 C 232.235 261.009,232.110 261.843,232.194 261.927 C 232.278 262.012,232.551 261.324,232.800 260.400 C 233.049 259.476,233.174 258.641,233.079 258.545 C 232.983 258.450,232.710 259.137,232.473 260.073 M231.400 264.400 C 231.248 265.091,231.207 265.741,231.309 265.842 C 231.411 265.944,231.609 265.453,231.750 264.750 C 231.891 264.047,231.931 263.398,231.841 263.308 C 231.750 263.217,231.552 263.709,231.400 264.400 M230.600 267.600 C 230.448 268.291,230.407 268.941,230.509 269.042 C 230.611 269.144,230.809 268.653,230.950 267.950 C 231.091 267.247,231.131 266.598,231.041 266.508 C 230.950 266.417,230.752 266.909,230.600 267.600 M158.109 272.400 C 158.109 273.390,158.187 273.795,158.282 273.300 C 158.378 272.805,158.378 271.995,158.282 271.500 C 158.187 271.005,158.109 271.410,158.109 272.400 M229.449 272.615 C 229.312 272.973,229.215 273.566,229.234 273.933 C 229.253 274.300,229.427 274.069,229.621 273.420 C 229.998 272.158,229.865 271.533,229.449 272.615 M158.493 275.600 C 158.493 276.370,158.575 276.685,158.676 276.300 C 158.776 275.915,158.776 275.285,158.676 274.900 C 158.575 274.515,158.493 274.830,158.493 275.600 M228.600 276.000 C 228.448 276.691,228.407 277.341,228.509 277.442 C 228.611 277.544,228.809 277.053,228.950 276.350 C 229.091 275.647,229.131 274.998,229.041 274.908 C 228.950 274.817,228.752 275.309,228.600 276.000 M227.673 279.673 C 227.435 280.609,227.310 281.443,227.394 281.527 C 227.478 281.612,227.751 280.924,228.000 280.000 C 228.249 279.076,228.374 278.241,228.279 278.145 C 228.183 278.050,227.910 278.737,227.673 279.673 M226.253 283.735 C 225.525 285.478,225.044 287.053,225.317 286.800 C 225.649 286.493,227.214 282.400,227.000 282.400 C 226.896 282.400,226.560 283.001,226.253 283.735 M160.414 282.854 C 160.406 282.994,160.663 283.714,160.984 284.454 C 161.306 285.194,161.569 285.530,161.570 285.200 C 161.572 284.624,160.443 282.334,160.414 282.854 M224.214 288.235 C 223.841 288.804,223.605 289.338,223.689 289.422 C 223.773 289.507,224.158 289.041,224.544 288.388 C 225.406 286.928,225.148 286.809,224.214 288.235 M219.822 294.446 C 218.559 295.791,217.699 296.826,217.910 296.746 C 218.344 296.582,222.581 292.000,222.299 292.000 C 222.199 292.000,221.085 293.101,219.822 294.446 M168.856 295.566 C 169.375 295.987,169.877 296.255,169.971 296.161 C 170.176 295.957,168.744 294.831,168.256 294.813 C 168.066 294.806,168.336 295.145,168.856 295.566 M171.600 297.621 C 173.289 299.131,174.776 300.164,174.959 299.954 C 175.032 299.869,173.991 299.028,172.646 298.084 C 170.876 296.843,170.587 296.715,171.600 297.621 M212.700 300.229 C 212.095 300.557,211.600 300.910,211.600 301.013 C 211.600 301.399,212.232 301.157,213.200 300.400 C 214.389 299.470,214.211 299.409,212.700 300.229 M175.600 300.198 C 175.600 300.530,180.149 302.674,181.400 302.932 C 182.540 303.166,182.550 303.158,181.600 302.753 C 181.050 302.520,179.475 301.806,178.100 301.168 C 176.725 300.530,175.600 300.093,175.600 300.198 M208.000 302.400 C 207.230 302.822,206.780 303.166,207.000 303.166 C 207.220 303.166,208.030 302.822,208.800 302.400 C 209.570 301.978,210.020 301.634,209.800 301.634 C 209.580 301.634,208.770 301.978,208.000 302.400 M189.300 304.691 C 190.125 304.778,191.475 304.778,192.300 304.691 C 193.125 304.605,192.450 304.534,190.800 304.534 C 189.150 304.534,188.475 304.605,189.300 304.691 M196.300 304.689 C 197.015 304.778,198.185 304.778,198.900 304.689 C 199.615 304.601,199.030 304.528,197.600 304.528 C 196.170 304.528,195.585 304.601,196.300 304.689 M194.900 320.294 C 195.945 320.376,197.655 320.376,198.700 320.294 C 199.745 320.212,198.890 320.144,196.800 320.144 C 194.710 320.144,193.855 320.212,194.900 320.294 M186.200 321.200 L 185.400 321.544 186.200 321.544 C 186.640 321.544,187.360 321.389,187.800 321.200 L 188.600 320.856 187.800 320.856 C 187.360 320.856,186.640 321.011,186.200 321.200 M206.000 321.200 C 207.368 321.638,208.419 321.638,207.400 321.200 C 206.960 321.011,206.240 320.862,205.800 320.868 C 205.157 320.877,205.196 320.943,206.000 321.200 M209.400 322.000 C 209.840 322.189,210.470 322.344,210.800 322.344 C 211.178 322.344,211.104 322.217,210.600 322.000 C 210.160 321.811,209.530 321.656,209.200 321.656 C 208.822 321.656,208.896 321.783,209.400 322.000 M180.600 322.800 C 180.096 323.017,180.022 323.144,180.400 323.144 C 180.730 323.144,181.360 322.989,181.800 322.800 C 182.304 322.583,182.378 322.456,182.000 322.456 C 181.670 322.456,181.040 322.611,180.600 322.800 M177.000 324.427 C 176.340 324.850,175.944 325.197,176.120 325.198 C 176.560 325.201,178.800 324.024,178.800 323.790 C 178.800 323.442,178.212 323.651,177.000 324.427 M214.800 323.774 C 214.800 323.865,215.790 324.476,217.000 325.131 C 218.210 325.787,219.200 326.198,219.200 326.045 C 219.200 325.892,218.210 325.281,217.000 324.688 C 215.790 324.094,214.800 323.683,214.800 323.774 M172.100 327.246 C 170.737 328.119,170.295 328.706,171.500 328.043 C 172.418 327.539,173.856 326.427,173.600 326.419 C 173.490 326.416,172.815 326.788,172.100 327.246 M223.200 328.868 C 224.862 330.544,228.055 333.221,227.000 332.053 C 226.340 331.323,225.080 330.172,224.200 329.494 C 223.320 328.817,222.870 328.535,223.200 328.868 M164.985 333.245 C 163.893 334.370,163.360 335.062,163.800 334.783 C 164.581 334.286,167.451 331.200,167.131 331.200 C 167.043 331.200,166.077 332.120,164.985 333.245 M230.229 335.900 C 230.847 336.725,231.803 338.030,232.354 338.800 C 233.562 340.488,234.254 341.256,233.796 340.400 C 233.242 339.364,229.534 334.400,229.315 334.400 C 229.199 334.400,229.611 335.075,230.229 335.900 M161.006 337.888 L 160.304 339.000 161.230 338.111 C 161.739 337.622,162.055 337.122,161.932 336.999 C 161.809 336.876,161.392 337.276,161.006 337.888 M159.711 339.700 C 158.929 340.711,158.663 341.332,159.136 341.040 C 159.610 340.747,160.557 339.200,160.263 339.200 C 160.172 339.200,159.924 339.425,159.711 339.700 M157.853 342.900 L 157.133 344.200 157.958 343.200 C 158.689 342.313,159.014 341.600,158.686 341.600 C 158.624 341.600,158.249 342.185,157.853 342.900 M237.018 347.700 C 237.168 348.195,237.455 348.776,237.656 348.991 C 237.857 349.206,237.819 348.801,237.572 348.091 C 237.065 346.638,236.597 346.308,237.018 347.700 M238.868 353.600 C 238.888 354.639,239.518 356.346,239.532 355.400 C 239.538 354.960,239.389 354.240,239.200 353.800 C 238.989 353.310,238.861 353.232,238.868 353.600 M152.953 363.800 C 152.953 366.440,153.018 367.468,153.097 366.084 C 153.175 364.701,153.174 362.541,153.095 361.284 C 153.016 360.028,152.952 361.160,152.953 363.800 M153.693 372.800 C 153.693 373.570,153.775 373.885,153.876 373.500 C 153.976 373.115,153.976 372.485,153.876 372.100 C 153.775 371.715,153.693 372.030,153.693 372.800 M239.249 372.200 C 239.216 372.640,239.096 373.450,238.983 374.000 L 238.777 375.000 239.206 374.019 C 239.442 373.479,239.561 372.669,239.472 372.219 C 239.313 371.421,239.307 371.421,239.249 372.200 M238.229 376.229 C 238.081 376.815,238.038 377.372,238.132 377.466 C 238.227 377.560,238.424 377.158,238.571 376.571 C 238.719 375.985,238.762 375.428,238.668 375.334 C 238.573 375.240,238.376 375.642,238.229 376.229 M155.223 379.326 C 155.189 379.814,156.885 383.648,157.059 383.474 C 157.142 383.392,156.768 382.351,156.228 381.162 C 155.688 379.973,155.236 379.147,155.223 379.326 M157.549 385.000 C 157.765 385.440,158.234 386.160,158.593 386.600 L 159.244 387.400 158.851 386.600 C 158.635 386.160,158.166 385.440,157.807 385.000 L 157.156 384.200 157.549 385.000 M231.881 389.900 C 230.561 391.767,230.392 392.120,231.333 391.045 C 232.595 389.601,234.210 387.200,233.918 387.200 C 233.848 387.200,232.931 388.415,231.881 389.900 M164.000 393.800 C 165.195 395.010,166.263 396.000,166.373 396.000 C 166.483 396.000,165.595 395.010,164.400 393.800 C 163.205 392.590,162.137 391.600,162.027 391.600 C 161.917 391.600,162.805 392.590,164.000 393.800 M220.678 400.213 C 220.060 400.756,219.714 401.200,219.908 401.200 C 220.102 401.200,220.683 400.750,221.200 400.200 C 222.395 398.928,222.131 398.934,220.678 400.213 M174.000 401.398 C 174.000 401.666,178.849 404.085,179.028 403.906 C 179.108 403.825,178.010 403.185,176.587 402.483 C 175.164 401.782,174.000 401.293,174.000 401.398 M212.200 404.285 C 211.760 404.391,211.232 404.637,211.027 404.832 C 210.822 405.027,211.251 405.015,211.981 404.805 C 214.043 404.214,214.217 403.800,212.200 404.285 M181.600 404.919 C 182.678 405.534,184.800 406.135,184.800 405.826 C 184.800 405.723,184.215 405.469,183.500 405.262 C 182.785 405.056,181.840 404.766,181.400 404.618 C 180.904 404.451,180.981 404.566,181.600 404.919 M187.000 406.410 C 187.770 406.731,191.507 406.951,191.167 406.655 C 191.075 406.576,189.920 406.413,188.600 406.293 C 187.151 406.162,186.517 406.208,187.000 406.410 M204.200 406.400 L 202.200 406.674 204.000 406.731 C 204.990 406.762,206.070 406.613,206.400 406.400 C 206.730 406.187,206.820 406.038,206.600 406.069 C 206.380 406.100,205.300 406.249,204.200 406.400 M192.305 407.083 C 192.802 407.179,193.522 407.175,193.905 407.075 C 194.287 406.975,193.880 406.896,193.000 406.901 C 192.120 406.905,191.807 406.987,192.305 407.083 M200.100 407.076 C 200.485 407.176,201.115 407.176,201.500 407.076 C 201.885 406.975,201.570 406.893,200.800 406.893 C 200.030 406.893,199.715 406.975,200.100 407.076 " stroke="none" fill="#7c7c7c" fill-rule="evenodd"></path></g></svg>